<svg width="782" height="134" viewBox="0 0 782 134" fill="none" xmlns="http://www.w3.org/2000/svg">
<g id="Frame 1171275336">
<g id="Frame 1116600081">
<g id="Group 427318828">
<g id="Rectangle 26" filter="url(#filter0_d_294_1261)">
<rect width="250" height="134" rx="16" fill="white"/>
<rect x="0.5" y="0.5" width="249" height="133" rx="15.5" stroke="#D0DDFC"/>
</g>
<g id="Group 8940">
<circle id="Ellipse 239" opacity="0.3" cx="33.5" cy="108.5" r="7.5" fill="#CE7171"/>
<path id="Vector" d="M38 107L35.5 109.5L33.5 107.5L30.25 110.75M30 108V111H33" stroke="#910C0C"/>
<path id="-8% from February" opacity="0.5" d="M50.082 108.928V109.818H47.2227V108.928H50.082ZM56.4043 110.691C56.4043 111.211 56.2832 111.652 56.041 112.016C55.8027 112.375 55.4785 112.648 55.0684 112.836C54.6621 113.023 54.2031 113.117 53.6914 113.117C53.1797 113.117 52.7188 113.023 52.3086 112.836C51.8984 112.648 51.5742 112.375 51.3359 112.016C51.0977 111.652 50.9785 111.211 50.9785 110.691C50.9785 110.352 51.043 110.041 51.1719 109.76C51.3047 109.475 51.4902 109.227 51.7285 109.016C51.9707 108.805 52.2559 108.643 52.584 108.529C52.916 108.412 53.2812 108.354 53.6797 108.354C54.2031 108.354 54.6699 108.455 55.0801 108.658C55.4902 108.857 55.8125 109.133 56.0469 109.484C56.2852 109.836 56.4043 110.238 56.4043 110.691ZM55.3145 110.668C55.3145 110.352 55.2461 110.072 55.1094 109.83C54.9727 109.584 54.7812 109.393 54.5352 109.256C54.2891 109.119 54.0039 109.051 53.6797 109.051C53.3477 109.051 53.0605 109.119 52.8184 109.256C52.5801 109.393 52.3945 109.584 52.2617 109.83C52.1289 110.072 52.0625 110.352 52.0625 110.668C52.0625 110.996 52.127 111.277 52.2559 111.512C52.3887 111.742 52.5762 111.92 52.8184 112.045C53.0645 112.166 53.3555 112.227 53.6914 112.227C54.0273 112.227 54.3164 112.166 54.5586 112.045C54.8008 111.92 54.9863 111.742 55.1152 111.512C55.248 111.277 55.3145 110.996 55.3145 110.668ZM56.2051 106.689C56.2051 107.104 56.0957 107.477 55.877 107.809C55.6582 108.141 55.3594 108.402 54.9805 108.594C54.6016 108.785 54.1719 108.881 53.6914 108.881C53.2031 108.881 52.7676 108.785 52.3848 108.594C52.0059 108.402 51.709 108.141 51.4941 107.809C51.2793 107.477 51.1719 107.104 51.1719 106.689C51.1719 106.193 51.2793 105.771 51.4941 105.424C51.7129 105.076 52.0117 104.811 52.3906 104.627C52.7695 104.443 53.2012 104.352 53.6855 104.352C54.1738 104.352 54.6074 104.443 54.9863 104.627C55.3652 104.811 55.6621 105.076 55.877 105.424C56.0957 105.771 56.2051 106.193 56.2051 106.689ZM55.1211 106.707C55.1211 106.422 55.0605 106.17 54.9395 105.951C54.8184 105.732 54.6504 105.561 54.4355 105.436C54.2207 105.307 53.9707 105.242 53.6855 105.242C53.4004 105.242 53.1504 105.303 52.9355 105.424C52.7246 105.541 52.5586 105.709 52.4375 105.928C52.3203 106.146 52.2617 106.406 52.2617 106.707C52.2617 107 52.3203 107.256 52.4375 107.475C52.5586 107.693 52.7266 107.863 52.9414 107.984C53.1562 108.105 53.4062 108.166 53.6914 108.166C53.9766 108.166 54.2246 108.105 54.4355 107.984C54.6504 107.863 54.8184 107.693 54.9395 107.475C55.0605 107.256 55.1211 107 55.1211 106.707ZM57.6816 106.561V106.109C57.6816 105.785 57.752 105.49 57.8926 105.225C58.0332 104.959 58.2344 104.746 58.4961 104.586C58.7578 104.426 59.0684 104.346 59.4277 104.346C59.7949 104.346 60.1074 104.426 60.3652 104.586C60.627 104.746 60.8281 104.959 60.9688 105.225C61.1094 105.49 61.1797 105.785 61.1797 106.109V106.561C61.1797 106.877 61.1094 107.168 60.9688 107.434C60.832 107.699 60.6328 107.912 60.3711 108.072C60.1133 108.232 59.8027 108.312 59.4395 108.312C59.0762 108.312 58.7617 108.232 58.4961 108.072C58.2344 107.912 58.0332 107.699 57.8926 107.434C57.752 107.168 57.6816 106.877 57.6816 106.561ZM58.4961 106.109V106.561C58.4961 106.74 58.5293 106.91 58.5957 107.07C58.666 107.23 58.7715 107.361 58.9121 107.463C59.0527 107.561 59.2285 107.609 59.4395 107.609C59.6504 107.609 59.8242 107.561 59.9609 107.463C60.0977 107.361 60.1992 107.23 60.2656 107.07C60.332 106.91 60.3652 106.74 60.3652 106.561V106.109C60.3652 105.926 60.3301 105.754 60.2598 105.594C60.1934 105.43 60.0898 105.299 59.9492 105.201C59.8125 105.1 59.6387 105.049 59.4277 105.049C59.2207 105.049 59.0469 105.1 58.9062 105.201C58.7695 105.299 58.666 105.43 58.5957 105.594C58.5293 105.754 58.4961 105.926 58.4961 106.109ZM61.8359 111.365V110.908C61.8359 110.588 61.9062 110.295 62.0469 110.029C62.1875 109.764 62.3887 109.551 62.6504 109.391C62.9121 109.23 63.2227 109.15 63.582 109.15C63.9492 109.15 64.2617 109.23 64.5195 109.391C64.7812 109.551 64.9824 109.764 65.123 110.029C65.2637 110.295 65.334 110.588 65.334 110.908V111.365C65.334 111.686 65.2637 111.979 65.123 112.244C64.9863 112.51 64.7871 112.723 64.5254 112.883C64.2676 113.043 63.957 113.123 63.5938 113.123C63.2305 113.123 62.918 113.043 62.6562 112.883C62.3945 112.723 62.1914 112.51 62.0469 112.244C61.9062 111.979 61.8359 111.686 61.8359 111.365ZM62.6504 110.908V111.365C62.6504 111.545 62.6836 111.717 62.75 111.881C62.8203 112.041 62.9258 112.172 63.0664 112.273C63.207 112.371 63.3828 112.42 63.5938 112.42C63.8047 112.42 63.9785 112.371 64.1152 112.273C64.2559 112.172 64.3594 112.041 64.4258 111.881C64.4922 111.721 64.5254 111.549 64.5254 111.365V110.908C64.5254 110.725 64.4902 110.553 64.4199 110.393C64.3535 110.232 64.25 110.104 64.1094 110.006C63.9727 109.904 63.7969 109.854 63.582 109.854C63.375 109.854 63.2012 109.904 63.0605 110.006C62.9238 110.104 62.8203 110.232 62.75 110.393C62.6836 110.553 62.6504 110.725 62.6504 110.908ZM63.8516 105.682L59.6855 112.35L59.0762 111.963L63.2422 105.295L63.8516 105.682ZM71.2754 113H70.1914V105.992C70.1914 105.535 70.2734 105.15 70.4375 104.838C70.6055 104.521 70.8457 104.283 71.1582 104.123C71.4707 103.959 71.8418 103.877 72.2715 103.877C72.3965 103.877 72.5215 103.885 72.6465 103.9C72.7754 103.916 72.9004 103.939 73.0215 103.971L72.9629 104.855C72.8809 104.836 72.7871 104.822 72.6816 104.814C72.5801 104.807 72.4785 104.803 72.377 104.803C72.1465 104.803 71.9473 104.85 71.7793 104.943C71.6152 105.033 71.4902 105.166 71.4043 105.342C71.3184 105.518 71.2754 105.734 71.2754 105.992V113ZM72.623 106.66V107.492H69.1895V106.66H72.623ZM74.9141 107.656V113H73.8301V106.66H74.8848L74.9141 107.656ZM76.8945 106.625L76.8887 107.633C76.7988 107.613 76.7129 107.602 76.6309 107.598C76.5527 107.59 76.4629 107.586 76.3613 107.586C76.1113 107.586 75.8906 107.625 75.6992 107.703C75.5078 107.781 75.3457 107.891 75.2129 108.031C75.0801 108.172 74.9746 108.34 74.8965 108.535C74.8223 108.727 74.7734 108.938 74.75 109.168L74.4453 109.344C74.4453 108.961 74.4824 108.602 74.5566 108.266C74.6348 107.93 74.7539 107.633 74.9141 107.375C75.0742 107.113 75.2773 106.91 75.5234 106.766C75.7734 106.617 76.0703 106.543 76.4141 106.543C76.4922 106.543 76.582 106.553 76.6836 106.572C76.7852 106.588 76.8555 106.605 76.8945 106.625ZM77.4922 109.9V109.766C77.4922 109.309 77.5586 108.885 77.6914 108.494C77.8242 108.1 78.0156 107.758 78.2656 107.469C78.5156 107.176 78.8184 106.949 79.1738 106.789C79.5293 106.625 79.9277 106.543 80.3691 106.543C80.8145 106.543 81.2148 106.625 81.5703 106.789C81.9297 106.949 82.2344 107.176 82.4844 107.469C82.7383 107.758 82.9316 108.1 83.0645 108.494C83.1973 108.885 83.2637 109.309 83.2637 109.766V109.9C83.2637 110.357 83.1973 110.781 83.0645 111.172C82.9316 111.562 82.7383 111.904 82.4844 112.197C82.2344 112.486 81.9316 112.713 81.5762 112.877C81.2246 113.037 80.8262 113.117 80.3809 113.117C79.9355 113.117 79.5352 113.037 79.1797 112.877C78.8242 112.713 78.5195 112.486 78.2656 112.197C78.0156 111.904 77.8242 111.562 77.6914 111.172C77.5586 110.781 77.4922 110.357 77.4922 109.9ZM78.5762 109.766V109.9C78.5762 110.217 78.6133 110.516 78.6875 110.797C78.7617 111.074 78.873 111.32 79.0215 111.535C79.1738 111.75 79.3633 111.92 79.5898 112.045C79.8164 112.166 80.0801 112.227 80.3809 112.227C80.6777 112.227 80.9375 112.166 81.1602 112.045C81.3867 111.92 81.5742 111.75 81.7227 111.535C81.8711 111.32 81.9824 111.074 82.0566 110.797C82.1348 110.516 82.1738 110.217 82.1738 109.9V109.766C82.1738 109.453 82.1348 109.158 82.0566 108.881C81.9824 108.6 81.8691 108.352 81.7168 108.137C81.5684 107.918 81.3809 107.746 81.1543 107.621C80.9316 107.496 80.6699 107.434 80.3691 107.434C80.0723 107.434 79.8105 107.496 79.584 107.621C79.3613 107.746 79.1738 107.918 79.0215 108.137C78.873 108.352 78.7617 108.6 78.6875 108.881C78.6133 109.158 78.5762 109.453 78.5762 109.766ZM85.7012 107.92V113H84.6113V106.66H85.6426L85.7012 107.92ZM85.4785 109.59L84.9746 109.572C84.9785 109.139 85.0352 108.738 85.1445 108.371C85.2539 108 85.416 107.678 85.6309 107.404C85.8457 107.131 86.1133 106.92 86.4336 106.771C86.7539 106.619 87.125 106.543 87.5469 106.543C87.8438 106.543 88.1172 106.586 88.3672 106.672C88.6172 106.754 88.834 106.885 89.0176 107.064C89.2012 107.244 89.3438 107.475 89.4453 107.756C89.5469 108.037 89.5977 108.377 89.5977 108.775V113H88.5137V108.828C88.5137 108.496 88.457 108.23 88.3438 108.031C88.2344 107.832 88.0781 107.688 87.875 107.598C87.6719 107.504 87.4336 107.457 87.1602 107.457C86.8398 107.457 86.5723 107.514 86.3574 107.627C86.1426 107.74 85.9707 107.896 85.8418 108.096C85.7129 108.295 85.6191 108.523 85.5605 108.781C85.5059 109.035 85.4785 109.305 85.4785 109.59ZM89.5859 108.992L88.8594 109.215C88.8633 108.867 88.9199 108.533 89.0293 108.213C89.1426 107.893 89.3047 107.607 89.5156 107.357C89.7305 107.107 89.9941 106.91 90.3066 106.766C90.6191 106.617 90.9766 106.543 91.3789 106.543C91.7188 106.543 92.0195 106.588 92.2812 106.678C92.5469 106.768 92.7695 106.906 92.9492 107.094C93.1328 107.277 93.2715 107.514 93.3652 107.803C93.459 108.092 93.5059 108.436 93.5059 108.834V113H92.416V108.822C92.416 108.467 92.3594 108.191 92.2461 107.996C92.1367 107.797 91.9805 107.658 91.7773 107.58C91.5781 107.498 91.3398 107.457 91.0625 107.457C90.8242 107.457 90.6133 107.498 90.4297 107.58C90.2461 107.662 90.0918 107.775 89.9668 107.92C89.8418 108.061 89.7461 108.223 89.6797 108.406C89.6172 108.59 89.5859 108.785 89.5859 108.992ZM99.418 104.469V113H98.2871V104.469H99.418ZM102.992 108.307V109.232H99.1719V108.307H102.992ZM103.572 104.469V105.395H99.1719V104.469H103.572ZM107.258 113.117C106.816 113.117 106.416 113.043 106.057 112.895C105.701 112.742 105.395 112.529 105.137 112.256C104.883 111.982 104.688 111.658 104.551 111.283C104.414 110.908 104.346 110.498 104.346 110.053V109.807C104.346 109.291 104.422 108.832 104.574 108.43C104.727 108.023 104.934 107.68 105.195 107.398C105.457 107.117 105.754 106.904 106.086 106.76C106.418 106.615 106.762 106.543 107.117 106.543C107.57 106.543 107.961 106.621 108.289 106.777C108.621 106.934 108.893 107.152 109.104 107.434C109.314 107.711 109.471 108.039 109.572 108.418C109.674 108.793 109.725 109.203 109.725 109.648V110.135H104.99V109.25H108.641V109.168C108.625 108.887 108.566 108.613 108.465 108.348C108.367 108.082 108.211 107.863 107.996 107.691C107.781 107.52 107.488 107.434 107.117 107.434C106.871 107.434 106.645 107.486 106.438 107.592C106.23 107.693 106.053 107.846 105.904 108.049C105.756 108.252 105.641 108.5 105.559 108.793C105.477 109.086 105.436 109.424 105.436 109.807V110.053C105.436 110.354 105.477 110.637 105.559 110.902C105.645 111.164 105.768 111.395 105.928 111.594C106.092 111.793 106.289 111.949 106.52 112.062C106.754 112.176 107.02 112.232 107.316 112.232C107.699 112.232 108.023 112.154 108.289 111.998C108.555 111.842 108.787 111.633 108.986 111.371L109.643 111.893C109.506 112.1 109.332 112.297 109.121 112.484C108.91 112.672 108.65 112.824 108.342 112.941C108.037 113.059 107.676 113.117 107.258 113.117ZM110.984 104H112.074V111.77L111.98 113H110.984V104ZM116.357 109.777V109.9C116.357 110.361 116.303 110.789 116.193 111.184C116.084 111.574 115.924 111.914 115.713 112.203C115.502 112.492 115.244 112.717 114.939 112.877C114.635 113.037 114.285 113.117 113.891 113.117C113.488 113.117 113.135 113.049 112.83 112.912C112.529 112.771 112.275 112.57 112.068 112.309C111.861 112.047 111.695 111.73 111.57 111.359C111.449 110.988 111.365 110.57 111.318 110.105V109.566C111.365 109.098 111.449 108.678 111.57 108.307C111.695 107.936 111.861 107.619 112.068 107.357C112.275 107.092 112.529 106.891 112.83 106.754C113.131 106.613 113.48 106.543 113.879 106.543C114.277 106.543 114.631 106.621 114.939 106.777C115.248 106.93 115.506 107.148 115.713 107.434C115.924 107.719 116.084 108.061 116.193 108.459C116.303 108.854 116.357 109.293 116.357 109.777ZM115.268 109.9V109.777C115.268 109.461 115.238 109.164 115.18 108.887C115.121 108.605 115.027 108.359 114.898 108.148C114.77 107.934 114.6 107.766 114.389 107.645C114.178 107.52 113.918 107.457 113.609 107.457C113.336 107.457 113.098 107.504 112.895 107.598C112.695 107.691 112.525 107.818 112.385 107.979C112.244 108.135 112.129 108.314 112.039 108.518C111.953 108.717 111.889 108.924 111.846 109.139V110.551C111.908 110.824 112.01 111.088 112.15 111.342C112.295 111.592 112.486 111.797 112.725 111.957C112.967 112.117 113.266 112.197 113.621 112.197C113.914 112.197 114.164 112.139 114.371 112.021C114.582 111.9 114.752 111.734 114.881 111.523C115.014 111.312 115.111 111.068 115.174 110.791C115.236 110.514 115.268 110.217 115.268 109.9ZM118.812 107.656V113H117.729V106.66H118.783L118.812 107.656ZM120.793 106.625L120.787 107.633C120.697 107.613 120.611 107.602 120.529 107.598C120.451 107.59 120.361 107.586 120.26 107.586C120.01 107.586 119.789 107.625 119.598 107.703C119.406 107.781 119.244 107.891 119.111 108.031C118.979 108.172 118.873 108.34 118.795 108.535C118.721 108.727 118.672 108.938 118.648 109.168L118.344 109.344C118.344 108.961 118.381 108.602 118.455 108.266C118.533 107.93 118.652 107.633 118.812 107.375C118.973 107.113 119.176 106.91 119.422 106.766C119.672 106.617 119.969 106.543 120.312 106.543C120.391 106.543 120.48 106.553 120.582 106.572C120.684 106.588 120.754 106.605 120.793 106.625ZM125.674 111.535V106.66H126.764V113H125.727L125.674 111.535ZM125.879 110.199L126.33 110.188C126.33 110.609 126.285 111 126.195 111.359C126.109 111.715 125.969 112.023 125.773 112.285C125.578 112.547 125.322 112.752 125.006 112.9C124.689 113.045 124.305 113.117 123.852 113.117C123.543 113.117 123.26 113.072 123.002 112.982C122.748 112.893 122.529 112.754 122.346 112.566C122.162 112.379 122.02 112.135 121.918 111.834C121.82 111.533 121.771 111.172 121.771 110.75V106.66H122.855V110.762C122.855 111.047 122.887 111.283 122.949 111.471C123.016 111.654 123.104 111.801 123.213 111.91C123.326 112.016 123.451 112.09 123.588 112.133C123.729 112.176 123.873 112.197 124.021 112.197C124.482 112.197 124.848 112.109 125.117 111.934C125.387 111.754 125.58 111.514 125.697 111.213C125.818 110.908 125.879 110.57 125.879 110.199ZM132.154 111.916V108.652C132.154 108.402 132.104 108.186 132.002 108.002C131.904 107.814 131.756 107.67 131.557 107.568C131.357 107.467 131.111 107.416 130.818 107.416C130.545 107.416 130.305 107.463 130.098 107.557C129.895 107.65 129.734 107.773 129.617 107.926C129.504 108.078 129.447 108.242 129.447 108.418H128.363C128.363 108.191 128.422 107.967 128.539 107.744C128.656 107.521 128.824 107.32 129.043 107.141C129.266 106.957 129.531 106.812 129.84 106.707C130.152 106.598 130.5 106.543 130.883 106.543C131.344 106.543 131.75 106.621 132.102 106.777C132.457 106.934 132.734 107.17 132.934 107.486C133.137 107.799 133.238 108.191 133.238 108.664V111.617C133.238 111.828 133.256 112.053 133.291 112.291C133.33 112.529 133.387 112.734 133.461 112.906V113H132.33C132.275 112.875 132.232 112.709 132.201 112.502C132.17 112.291 132.154 112.096 132.154 111.916ZM132.342 109.156L132.354 109.918H131.258C130.949 109.918 130.674 109.943 130.432 109.994C130.189 110.041 129.986 110.113 129.822 110.211C129.658 110.309 129.533 110.432 129.447 110.58C129.361 110.725 129.318 110.895 129.318 111.09C129.318 111.289 129.363 111.471 129.453 111.635C129.543 111.799 129.678 111.93 129.857 112.027C130.041 112.121 130.266 112.168 130.531 112.168C130.863 112.168 131.156 112.098 131.41 111.957C131.664 111.816 131.865 111.645 132.014 111.441C132.166 111.238 132.248 111.041 132.26 110.85L132.723 111.371C132.695 111.535 132.621 111.717 132.5 111.916C132.379 112.115 132.217 112.307 132.014 112.49C131.814 112.67 131.576 112.82 131.299 112.941C131.025 113.059 130.717 113.117 130.373 113.117C129.943 113.117 129.566 113.033 129.242 112.865C128.922 112.697 128.672 112.473 128.492 112.191C128.316 111.906 128.229 111.588 128.229 111.236C128.229 110.896 128.295 110.598 128.428 110.34C128.561 110.078 128.752 109.861 129.002 109.689C129.252 109.514 129.553 109.381 129.904 109.291C130.256 109.201 130.648 109.156 131.082 109.156H132.342ZM136.027 107.656V113H134.943V106.66H135.998L136.027 107.656ZM138.008 106.625L138.002 107.633C137.912 107.613 137.826 107.602 137.744 107.598C137.666 107.59 137.576 107.586 137.475 107.586C137.225 107.586 137.004 107.625 136.812 107.703C136.621 107.781 136.459 107.891 136.326 108.031C136.193 108.172 136.088 108.34 136.01 108.535C135.936 108.727 135.887 108.938 135.863 109.168L135.559 109.344C135.559 108.961 135.596 108.602 135.67 108.266C135.748 107.93 135.867 107.633 136.027 107.375C136.188 107.113 136.391 106.91 136.637 106.766C136.887 106.617 137.184 106.543 137.527 106.543C137.605 106.543 137.695 106.553 137.797 106.572C137.898 106.588 137.969 106.605 138.008 106.625ZM140.896 112.344L142.66 106.66H143.82L141.277 113.979C141.219 114.135 141.141 114.303 141.043 114.482C140.949 114.666 140.828 114.84 140.68 115.004C140.531 115.168 140.352 115.301 140.141 115.402C139.934 115.508 139.686 115.561 139.396 115.561C139.311 115.561 139.201 115.549 139.068 115.525C138.936 115.502 138.842 115.482 138.787 115.467L138.781 114.588C138.812 114.592 138.861 114.596 138.928 114.6C138.998 114.607 139.047 114.611 139.074 114.611C139.32 114.611 139.529 114.578 139.701 114.512C139.873 114.449 140.018 114.342 140.135 114.189C140.256 114.041 140.359 113.836 140.445 113.574L140.896 112.344ZM139.602 106.66L141.248 111.582L141.529 112.725L140.75 113.123L138.418 106.66H139.602Z" fill="#252C58"/>
</g>
<path id="Avg. Work Hours" d="M31.5312 81.6328L27.7656 92H26.2266L30.5625 80.625H31.5547L31.5312 81.6328ZM34.6875 92L30.9141 81.6328L30.8906 80.625H31.8828L36.2344 92H34.6875ZM34.4922 87.7891V89.0234H28.1016V87.7891H34.4922ZM39.7188 90.6953L42.0312 83.5469H43.5078L40.4688 92H39.5L39.7188 90.6953ZM37.7891 83.5469L40.1719 90.7344L40.3359 92H39.3672L36.3047 83.5469H37.7891ZM50.2656 83.5469H51.5781V91.8203C51.5781 92.5651 51.4271 93.2005 51.125 93.7266C50.8229 94.2526 50.401 94.651 49.8594 94.9219C49.3229 95.1979 48.7031 95.3359 48 95.3359C47.7083 95.3359 47.3646 95.2891 46.9688 95.1953C46.5781 95.1068 46.1927 94.9531 45.8125 94.7344C45.4375 94.5208 45.1224 94.2318 44.8672 93.8672L45.625 93.0078C45.9792 93.4349 46.349 93.7318 46.7344 93.8984C47.125 94.0651 47.5104 94.1484 47.8906 94.1484C48.349 94.1484 48.7448 94.0625 49.0781 93.8906C49.4115 93.7188 49.6693 93.4635 49.8516 93.125C50.0391 92.7917 50.1328 92.3802 50.1328 91.8906V85.4062L50.2656 83.5469ZM44.4453 87.8672V87.7031C44.4453 87.0573 44.5208 86.4714 44.6719 85.9453C44.8281 85.4141 45.0495 84.9583 45.3359 84.5781C45.6276 84.1979 45.9792 83.9062 46.3906 83.7031C46.8021 83.4948 47.2656 83.3906 47.7812 83.3906C48.3125 83.3906 48.776 83.4844 49.1719 83.6719C49.5729 83.8542 49.9115 84.1224 50.1875 84.4766C50.4688 84.8255 50.6901 85.2474 50.8516 85.7422C51.013 86.237 51.125 86.7969 51.1875 87.4219V88.1406C51.1302 88.7604 51.0182 89.3177 50.8516 89.8125C50.6901 90.3073 50.4688 90.7292 50.1875 91.0781C49.9115 91.4271 49.5729 91.6953 49.1719 91.8828C48.7708 92.0651 48.3021 92.1562 47.7656 92.1562C47.2604 92.1562 46.8021 92.0495 46.3906 91.8359C45.9844 91.6224 45.6354 91.3229 45.3438 90.9375C45.0521 90.5521 44.8281 90.099 44.6719 89.5781C44.5208 89.0521 44.4453 88.4818 44.4453 87.8672ZM45.8906 87.7031V87.8672C45.8906 88.2891 45.9323 88.6849 46.0156 89.0547C46.1042 89.4245 46.237 89.75 46.4141 90.0312C46.5964 90.3125 46.8281 90.5339 47.1094 90.6953C47.3906 90.8516 47.7266 90.9297 48.1172 90.9297C48.5964 90.9297 48.9922 90.8281 49.3047 90.625C49.6172 90.4219 49.8646 90.1536 50.0469 89.8203C50.2344 89.487 50.3802 89.125 50.4844 88.7344V86.8516C50.4271 86.5651 50.3385 86.2891 50.2188 86.0234C50.1042 85.7526 49.9531 85.513 49.7656 85.3047C49.5833 85.0911 49.3568 84.9219 49.0859 84.7969C48.8151 84.6719 48.4974 84.6094 48.1328 84.6094C47.737 84.6094 47.3958 84.6927 47.1094 84.8594C46.8281 85.0208 46.5964 85.2448 46.4141 85.5312C46.237 85.8125 46.1042 86.1406 46.0156 86.5156C45.9323 86.8854 45.8906 87.2812 45.8906 87.7031ZM53.7969 91.2344C53.7969 90.9896 53.8724 90.7839 54.0234 90.6172C54.1797 90.4453 54.4036 90.3594 54.6953 90.3594C54.987 90.3594 55.2083 90.4453 55.3594 90.6172C55.5156 90.7839 55.5938 90.9896 55.5938 91.2344C55.5938 91.474 55.5156 91.6771 55.3594 91.8438C55.2083 92.0104 54.987 92.0938 54.6953 92.0938C54.4036 92.0938 54.1797 92.0104 54.0234 91.8438C53.8724 91.6771 53.7969 91.474 53.7969 91.2344ZM65.1719 88.5625L67.4297 80.625H68.5234L67.8906 83.7109L65.4609 92H64.375L65.1719 88.5625ZM62.8359 80.625L64.6328 88.4062L65.1719 92H64.0938L61.3359 80.625H62.8359ZM71.4453 88.3984L73.2031 80.625H74.7109L71.9609 92H70.8828L71.4453 88.3984ZM68.6875 80.625L70.8828 88.5625L71.6797 92H70.5938L68.25 83.7109L67.6094 80.625H68.6875ZM75.5312 87.8672V87.6875C75.5312 87.0781 75.6198 86.513 75.7969 85.9922C75.974 85.4661 76.2292 85.0104 76.5625 84.625C76.8958 84.2344 77.2995 83.9323 77.7734 83.7188C78.2474 83.5 78.7786 83.3906 79.3672 83.3906C79.9609 83.3906 80.4948 83.5 80.9688 83.7188C81.4479 83.9323 81.8542 84.2344 82.1875 84.625C82.526 85.0104 82.7839 85.4661 82.9609 85.9922C83.138 86.513 83.2266 87.0781 83.2266 87.6875V87.8672C83.2266 88.4766 83.138 89.0417 82.9609 89.5625C82.7839 90.0833 82.526 90.5391 82.1875 90.9297C81.8542 91.3151 81.4505 91.6172 80.9766 91.8359C80.5078 92.0495 79.9766 92.1562 79.3828 92.1562C78.7891 92.1562 78.2552 92.0495 77.7812 91.8359C77.3073 91.6172 76.901 91.3151 76.5625 90.9297C76.2292 90.5391 75.974 90.0833 75.7969 89.5625C75.6198 89.0417 75.5312 88.4766 75.5312 87.8672ZM76.9766 87.6875V87.8672C76.9766 88.2891 77.026 88.6875 77.125 89.0625C77.224 89.4323 77.3724 89.7604 77.5703 90.0469C77.7734 90.3333 78.026 90.5599 78.3281 90.7266C78.6302 90.888 78.9818 90.9688 79.3828 90.9688C79.7786 90.9688 80.125 90.888 80.4219 90.7266C80.724 90.5599 80.974 90.3333 81.1719 90.0469C81.3698 89.7604 81.5182 89.4323 81.6172 89.0625C81.7214 88.6875 81.7734 88.2891 81.7734 87.8672V87.6875C81.7734 87.2708 81.7214 86.8776 81.6172 86.5078C81.5182 86.1328 81.3672 85.8021 81.1641 85.5156C80.9661 85.224 80.7161 84.9948 80.4141 84.8281C80.1172 84.6615 79.7682 84.5781 79.3672 84.5781C78.9714 84.5781 78.6224 84.6615 78.3203 84.8281C78.0234 84.9948 77.7734 85.224 77.5703 85.5156C77.3724 85.8021 77.224 86.1328 77.125 86.5078C77.026 86.8776 76.9766 87.2708 76.9766 87.6875ZM86.4844 84.875V92H85.0391V83.5469H86.4453L86.4844 84.875ZM89.125 83.5L89.1172 84.8438C88.9974 84.8177 88.8828 84.8021 88.7734 84.7969C88.6693 84.7865 88.5495 84.7812 88.4141 84.7812C88.0807 84.7812 87.7865 84.8333 87.5312 84.9375C87.276 85.0417 87.0599 85.1875 86.8828 85.375C86.7057 85.5625 86.5651 85.7865 86.4609 86.0469C86.362 86.3021 86.2969 86.5833 86.2656 86.8906L85.8594 87.125C85.8594 86.6146 85.9089 86.1354 86.0078 85.6875C86.112 85.2396 86.2708 84.8438 86.4844 84.5C86.6979 84.151 86.9688 83.8802 87.2969 83.6875C87.6302 83.4896 88.026 83.3906 88.4844 83.3906C88.5885 83.3906 88.7083 83.4036 88.8438 83.4297C88.9792 83.4505 89.0729 83.474 89.125 83.5ZM91.9141 80V92H90.4609V80H91.9141ZM97.0781 83.5469L93.3906 87.4922L91.3281 89.6328L91.2109 88.0938L92.6875 86.3281L95.3125 83.5469H97.0781ZM95.7578 92L92.7422 87.9688L93.4922 86.6797L97.4609 92H95.7578ZM110.188 85.5156V86.7422H104.031V85.5156H110.188ZM104.266 80.625V92H102.758V80.625H104.266ZM111.5 80.625V92H110V80.625H111.5ZM113.578 87.8672V87.6875C113.578 87.0781 113.667 86.513 113.844 85.9922C114.021 85.4661 114.276 85.0104 114.609 84.625C114.943 84.2344 115.346 83.9323 115.82 83.7188C116.294 83.5 116.826 83.3906 117.414 83.3906C118.008 83.3906 118.542 83.5 119.016 83.7188C119.495 83.9323 119.901 84.2344 120.234 84.625C120.573 85.0104 120.831 85.4661 121.008 85.9922C121.185 86.513 121.273 87.0781 121.273 87.6875V87.8672C121.273 88.4766 121.185 89.0417 121.008 89.5625C120.831 90.0833 120.573 90.5391 120.234 90.9297C119.901 91.3151 119.497 91.6172 119.023 91.8359C118.555 92.0495 118.023 92.1562 117.43 92.1562C116.836 92.1562 116.302 92.0495 115.828 91.8359C115.354 91.6172 114.948 91.3151 114.609 90.9297C114.276 90.5391 114.021 90.0833 113.844 89.5625C113.667 89.0417 113.578 88.4766 113.578 87.8672ZM115.023 87.6875V87.8672C115.023 88.2891 115.073 88.6875 115.172 89.0625C115.271 89.4323 115.419 89.7604 115.617 90.0469C115.82 90.3333 116.073 90.5599 116.375 90.7266C116.677 90.888 117.029 90.9688 117.43 90.9688C117.826 90.9688 118.172 90.888 118.469 90.7266C118.771 90.5599 119.021 90.3333 119.219 90.0469C119.417 89.7604 119.565 89.4323 119.664 89.0625C119.768 88.6875 119.82 88.2891 119.82 87.8672V87.6875C119.82 87.2708 119.768 86.8776 119.664 86.5078C119.565 86.1328 119.414 85.8021 119.211 85.5156C119.013 85.224 118.763 84.9948 118.461 84.8281C118.164 84.6615 117.815 84.5781 117.414 84.5781C117.018 84.5781 116.669 84.6615 116.367 84.8281C116.07 84.9948 115.82 85.224 115.617 85.5156C115.419 85.8021 115.271 86.1328 115.172 86.5078C115.073 86.8776 115.023 87.2708 115.023 87.6875ZM128.258 90.0469V83.5469H129.711V92H128.328L128.258 90.0469ZM128.531 88.2656L129.133 88.25C129.133 88.8125 129.073 89.3333 128.953 89.8125C128.839 90.2865 128.651 90.6979 128.391 91.0469C128.13 91.3958 127.789 91.6693 127.367 91.8672C126.945 92.0599 126.432 92.1562 125.828 92.1562C125.417 92.1562 125.039 92.0964 124.695 91.9766C124.357 91.8568 124.065 91.6719 123.82 91.4219C123.576 91.1719 123.385 90.8464 123.25 90.4453C123.12 90.0443 123.055 89.5625 123.055 89V83.5469H124.5V89.0156C124.5 89.3958 124.542 89.7109 124.625 89.9609C124.714 90.2057 124.831 90.401 124.977 90.5469C125.128 90.6875 125.294 90.7865 125.477 90.8438C125.664 90.901 125.857 90.9297 126.055 90.9297C126.669 90.9297 127.156 90.8125 127.516 90.5781C127.875 90.3385 128.133 90.0182 128.289 89.6172C128.451 89.2109 128.531 88.7604 128.531 88.2656ZM133.359 84.875V92H131.914V83.5469H133.32L133.359 84.875ZM136 83.5L135.992 84.8438C135.872 84.8177 135.758 84.8021 135.648 84.7969C135.544 84.7865 135.424 84.7812 135.289 84.7812C134.956 84.7812 134.661 84.8333 134.406 84.9375C134.151 85.0417 133.935 85.1875 133.758 85.375C133.581 85.5625 133.44 85.7865 133.336 86.0469C133.237 86.3021 133.172 86.5833 133.141 86.8906L132.734 87.125C132.734 86.6146 132.784 86.1354 132.883 85.6875C132.987 85.2396 133.146 84.8438 133.359 84.5C133.573 84.151 133.844 83.8802 134.172 83.6875C134.505 83.4896 134.901 83.3906 135.359 83.3906C135.464 83.3906 135.583 83.4036 135.719 83.4297C135.854 83.4505 135.948 83.474 136 83.5ZM142.258 89.7578C142.258 89.5495 142.211 89.3568 142.117 89.1797C142.029 88.9974 141.844 88.8333 141.562 88.6875C141.286 88.5365 140.87 88.4062 140.312 88.2969C139.844 88.1979 139.419 88.0807 139.039 87.9453C138.664 87.8099 138.344 87.6458 138.078 87.4531C137.818 87.2604 137.617 87.0339 137.477 86.7734C137.336 86.513 137.266 86.2083 137.266 85.8594C137.266 85.526 137.339 85.2109 137.484 84.9141C137.635 84.6172 137.846 84.3542 138.117 84.125C138.393 83.8958 138.724 83.7161 139.109 83.5859C139.495 83.4557 139.924 83.3906 140.398 83.3906C141.076 83.3906 141.654 83.5104 142.133 83.75C142.612 83.9896 142.979 84.3099 143.234 84.7109C143.49 85.1068 143.617 85.5469 143.617 86.0312H142.172C142.172 85.7969 142.102 85.5703 141.961 85.3516C141.826 85.1276 141.625 84.9427 141.359 84.7969C141.099 84.651 140.779 84.5781 140.398 84.5781C139.997 84.5781 139.672 84.6406 139.422 84.7656C139.177 84.8854 138.997 85.0391 138.883 85.2266C138.773 85.4141 138.719 85.612 138.719 85.8203C138.719 85.9766 138.745 86.1172 138.797 86.2422C138.854 86.362 138.953 86.474 139.094 86.5781C139.234 86.6771 139.432 86.7708 139.688 86.8594C139.943 86.9479 140.268 87.0365 140.664 87.125C141.357 87.2812 141.927 87.4688 142.375 87.6875C142.823 87.9062 143.156 88.1745 143.375 88.4922C143.594 88.8099 143.703 89.1953 143.703 89.6484C143.703 90.0182 143.625 90.3568 143.469 90.6641C143.318 90.9714 143.096 91.237 142.805 91.4609C142.518 91.6797 142.174 91.8516 141.773 91.9766C141.378 92.0964 140.932 92.1562 140.438 92.1562C139.693 92.1562 139.062 92.0234 138.547 91.7578C138.031 91.4922 137.641 91.1484 137.375 90.7266C137.109 90.3047 136.977 89.8594 136.977 89.3906H138.43C138.451 89.7865 138.565 90.1016 138.773 90.3359C138.982 90.5651 139.237 90.7292 139.539 90.8281C139.841 90.9219 140.141 90.9688 140.438 90.9688C140.833 90.9688 141.164 90.9167 141.43 90.8125C141.701 90.7083 141.906 90.5651 142.047 90.3828C142.188 90.2005 142.258 89.9922 142.258 89.7578Z" fill="#252C58"/>
<path id="08:20" d="M45.6494 38.2285V42.6445C45.6494 44.7598 45.4391 46.5658 45.0186 48.0625C44.6104 49.5469 44.0166 50.7529 43.2373 51.6807C42.458 52.6084 41.5241 53.2887 40.4355 53.7217C39.3594 54.1546 38.1533 54.3711 36.8174 54.3711C35.7536 54.3711 34.764 54.235 33.8486 53.9629C32.9456 53.6908 32.1292 53.264 31.3994 52.6826C30.6696 52.1012 30.0449 51.3529 29.5254 50.4375C29.0182 49.5098 28.6224 48.4027 28.3379 47.1162C28.0658 45.8298 27.9297 44.3392 27.9297 42.6445V38.2285C27.9297 36.1009 28.14 34.3073 28.5605 32.8477C28.9811 31.3757 29.5811 30.182 30.3604 29.2666C31.1396 28.3389 32.0674 27.6647 33.1436 27.2441C34.2321 26.8236 35.4443 26.6133 36.7803 26.6133C37.8564 26.6133 38.846 26.7493 39.749 27.0215C40.6644 27.2812 41.4808 27.6956 42.1982 28.2646C42.9281 28.8337 43.5465 29.5758 44.0537 30.4912C44.5732 31.3942 44.9691 32.4889 45.2412 33.7754C45.5133 35.0495 45.6494 36.5339 45.6494 38.2285ZM41.1777 43.2754V37.5605C41.1777 36.4844 41.1159 35.5381 40.9922 34.7217C40.8685 33.8929 40.6829 33.194 40.4355 32.625C40.2005 32.0436 39.9036 31.5736 39.5449 31.2148C39.1862 30.8438 38.778 30.5778 38.3203 30.417C37.8626 30.2438 37.3493 30.1572 36.7803 30.1572C36.0876 30.1572 35.4691 30.2933 34.9248 30.5654C34.3805 30.8252 33.9229 31.2458 33.5518 31.8271C33.1807 32.4085 32.8962 33.1755 32.6982 34.1279C32.5127 35.068 32.4199 36.2122 32.4199 37.5605V43.2754C32.4199 44.3639 32.4818 45.3226 32.6055 46.1514C32.7292 46.9801 32.9147 47.6914 33.1621 48.2852C33.4095 48.8665 33.7064 49.349 34.0527 49.7324C34.4115 50.1035 34.8197 50.3757 35.2773 50.5488C35.7474 50.722 36.2607 50.8086 36.8174 50.8086C37.5225 50.8086 38.1471 50.6725 38.6914 50.4004C39.2357 50.1283 39.6934 49.6953 40.0645 49.1016C40.4355 48.4954 40.7139 47.71 40.8994 46.7451C41.085 45.7803 41.1777 44.6237 41.1777 43.2754ZM67.3027 46.6338C67.3027 48.3161 66.9131 49.7324 66.1338 50.8828C65.3545 52.0332 64.2907 52.9053 62.9424 53.499C61.6064 54.0804 60.0973 54.3711 58.415 54.3711C56.7327 54.3711 55.2174 54.0804 53.8691 53.499C52.5208 52.9053 51.457 52.0332 50.6777 50.8828C49.8984 49.7324 49.5088 48.3161 49.5088 46.6338C49.5088 45.5205 49.7253 44.5124 50.1582 43.6094C50.5911 42.694 51.2035 41.9085 51.9951 41.2529C52.7992 40.585 53.7393 40.0716 54.8154 39.7129C55.904 39.3542 57.0915 39.1748 58.3779 39.1748C60.085 39.1748 61.6126 39.4902 62.9609 40.1211C64.3092 40.752 65.3669 41.624 66.1338 42.7373C66.9131 43.8506 67.3027 45.1494 67.3027 46.6338ZM62.8125 46.4111C62.8125 45.5081 62.627 44.7165 62.2559 44.0361C61.8848 43.3558 61.3652 42.8301 60.6973 42.459C60.0293 42.0879 59.2562 41.9023 58.3779 41.9023C57.4873 41.9023 56.7142 42.0879 56.0586 42.459C55.403 42.8301 54.8896 43.3558 54.5186 44.0361C54.1598 44.7165 53.9805 45.5081 53.9805 46.4111C53.9805 47.3265 54.1598 48.1182 54.5186 48.7861C54.8773 49.4417 55.3906 49.9427 56.0586 50.2891C56.7266 50.6354 57.512 50.8086 58.415 50.8086C59.318 50.8086 60.0973 50.6354 60.7529 50.2891C61.4085 49.9427 61.9157 49.4417 62.2744 48.7861C62.6331 48.1182 62.8125 47.3265 62.8125 46.4111ZM66.6904 34.0908C66.6904 35.4391 66.3317 36.639 65.6143 37.6904C64.9092 38.7419 63.932 39.5706 62.6826 40.1768C61.4333 40.7705 60.0107 41.0674 58.415 41.0674C56.807 41.0674 55.3721 40.7705 54.1104 40.1768C52.861 39.5706 51.8776 38.7419 51.1602 37.6904C50.4551 36.639 50.1025 35.4391 50.1025 34.0908C50.1025 32.4827 50.4551 31.1283 51.1602 30.0273C51.8776 28.9141 52.861 28.0667 54.1104 27.4854C55.3597 26.904 56.7884 26.6133 58.3965 26.6133C60.0046 26.6133 61.4333 26.904 62.6826 27.4854C63.932 28.0667 64.9092 28.9141 65.6143 30.0273C66.3317 31.1283 66.6904 32.4827 66.6904 34.0908ZM62.2188 34.2393C62.2188 33.4352 62.0579 32.7301 61.7363 32.124C61.4271 31.5055 60.988 31.0231 60.4189 30.6768C59.8499 30.3304 59.1758 30.1572 58.3965 30.1572C57.6172 30.1572 56.943 30.3242 56.374 30.6582C55.805 30.9922 55.3659 31.4622 55.0566 32.0684C54.7474 32.6745 54.5928 33.3981 54.5928 34.2393C54.5928 35.068 54.7474 35.7917 55.0566 36.4102C55.3659 37.0163 55.805 37.4925 56.374 37.8389C56.9554 38.1852 57.6357 38.3584 58.415 38.3584C59.1943 38.3584 59.8685 38.1852 60.4375 37.8389C61.0065 37.4925 61.4456 37.0163 61.7549 36.4102C62.0641 35.7917 62.2188 35.068 62.2188 34.2393ZM71.5518 51.7734C71.5518 51.0807 71.7868 50.4993 72.2568 50.0293C72.7269 49.5469 73.3639 49.3057 74.168 49.3057C74.9844 49.3057 75.6214 49.5469 76.0791 50.0293C76.5492 50.4993 76.7842 51.0807 76.7842 51.7734C76.7842 52.4661 76.5492 53.0475 76.0791 53.5176C75.6214 53.9876 74.9844 54.2227 74.168 54.2227C73.3639 54.2227 72.7269 53.9876 72.2568 53.5176C71.7868 53.0475 71.5518 52.4661 71.5518 51.7734ZM71.5703 35.9648C71.5703 35.2721 71.8053 34.6908 72.2754 34.2207C72.7454 33.7383 73.3825 33.4971 74.1865 33.4971C75.0029 33.4971 75.64 33.7383 76.0977 34.2207C76.5677 34.6908 76.8027 35.2721 76.8027 35.9648C76.8027 36.6576 76.5677 37.2389 76.0977 37.709C75.64 38.179 75.0029 38.4141 74.1865 38.4141C73.3825 38.4141 72.7454 38.179 72.2754 37.709C71.8053 37.2389 71.5703 36.6576 71.5703 35.9648ZM99.3652 50.4375V54H81.2559V50.9385L90.0508 41.3457C91.0156 40.2572 91.7764 39.3171 92.333 38.5254C92.8896 37.7337 93.2793 37.0225 93.502 36.3916C93.737 35.7484 93.8545 35.1237 93.8545 34.5176C93.8545 33.6641 93.6937 32.9157 93.3721 32.2725C93.0628 31.6169 92.6051 31.1035 91.999 30.7324C91.3929 30.349 90.6569 30.1572 89.791 30.1572C88.7891 30.1572 87.9479 30.3737 87.2676 30.8066C86.5872 31.2396 86.0739 31.8395 85.7275 32.6064C85.3812 33.361 85.208 34.2269 85.208 35.2041H80.7363C80.7363 33.6331 81.0951 32.1982 81.8125 30.8994C82.5299 29.5882 83.569 28.5492 84.9297 27.7822C86.2904 27.0029 87.9294 26.6133 89.8467 26.6133C91.6527 26.6133 93.1865 26.9163 94.4482 27.5225C95.71 28.1286 96.6686 28.9883 97.3242 30.1016C97.9922 31.2148 98.3262 32.5322 98.3262 34.0537C98.3262 34.8949 98.1901 35.7298 97.918 36.5586C97.6458 37.3874 97.2562 38.2161 96.749 39.0449C96.2542 39.8613 95.6667 40.6839 94.9863 41.5127C94.306 42.3291 93.5576 43.1579 92.7412 43.999L86.8965 50.4375H99.3652ZM120.462 38.2285V42.6445C120.462 44.7598 120.252 46.5658 119.831 48.0625C119.423 49.5469 118.829 50.7529 118.05 51.6807C117.271 52.6084 116.337 53.2887 115.248 53.7217C114.172 54.1546 112.966 54.3711 111.63 54.3711C110.566 54.3711 109.576 54.235 108.661 53.9629C107.758 53.6908 106.942 53.264 106.212 52.6826C105.482 52.1012 104.857 51.3529 104.338 50.4375C103.831 49.5098 103.435 48.4027 103.15 47.1162C102.878 45.8298 102.742 44.3392 102.742 42.6445V38.2285C102.742 36.1009 102.952 34.3073 103.373 32.8477C103.794 31.3757 104.394 30.182 105.173 29.2666C105.952 28.3389 106.88 27.6647 107.956 27.2441C109.045 26.8236 110.257 26.6133 111.593 26.6133C112.669 26.6133 113.659 26.7493 114.562 27.0215C115.477 27.2812 116.293 27.6956 117.011 28.2646C117.741 28.8337 118.359 29.5758 118.866 30.4912C119.386 31.3942 119.782 32.4889 120.054 33.7754C120.326 35.0495 120.462 36.5339 120.462 38.2285ZM115.99 43.2754V37.5605C115.99 36.4844 115.928 35.5381 115.805 34.7217C115.681 33.8929 115.495 33.194 115.248 32.625C115.013 32.0436 114.716 31.5736 114.357 31.2148C113.999 30.8438 113.59 30.5778 113.133 30.417C112.675 30.2438 112.162 30.1572 111.593 30.1572C110.9 30.1572 110.282 30.2933 109.737 30.5654C109.193 30.8252 108.735 31.2458 108.364 31.8271C107.993 32.4085 107.709 33.1755 107.511 34.1279C107.325 35.068 107.232 36.2122 107.232 37.5605V43.2754C107.232 44.3639 107.294 45.3226 107.418 46.1514C107.542 46.9801 107.727 47.6914 107.975 48.2852C108.222 48.8665 108.519 49.349 108.865 49.7324C109.224 50.1035 109.632 50.3757 110.09 50.5488C110.56 50.722 111.073 50.8086 111.63 50.8086C112.335 50.8086 112.96 50.6725 113.504 50.4004C114.048 50.1283 114.506 49.6953 114.877 49.1016C115.248 48.4954 115.526 47.71 115.712 46.7451C115.897 45.7803 115.99 44.6237 115.99 43.2754Z" fill="#252C58"/>
</g>
</g>
<g id="Frame 1171275335">
<g id="Group 427318828_2">
<g id="Rectangle 26_2" filter="url(#filter1_d_294_1261)">
<rect x="266" width="250" height="134" rx="16" fill="white"/>
<rect x="266.5" y="0.5" width="249" height="133" rx="15.5" stroke="#D0DDFC"/>
</g>
<g id="Group 8940_2">
<circle id="Ellipse 239_2" opacity="0.3" cx="299.5" cy="108.5" r="7.5" fill="#CE7171"/>
<path id="Vector_2" d="M304 107L301.5 109.5L299.5 107.5L296.25 110.75M296 108V111H299" stroke="#910C0C"/>
<path id="-8% from February_2" opacity="0.5" d="M316.082 108.928V109.818H313.223V108.928H316.082ZM322.404 110.691C322.404 111.211 322.283 111.652 322.041 112.016C321.803 112.375 321.479 112.648 321.068 112.836C320.662 113.023 320.203 113.117 319.691 113.117C319.18 113.117 318.719 113.023 318.309 112.836C317.898 112.648 317.574 112.375 317.336 112.016C317.098 111.652 316.979 111.211 316.979 110.691C316.979 110.352 317.043 110.041 317.172 109.76C317.305 109.475 317.49 109.227 317.729 109.016C317.971 108.805 318.256 108.643 318.584 108.529C318.916 108.412 319.281 108.354 319.68 108.354C320.203 108.354 320.67 108.455 321.08 108.658C321.49 108.857 321.812 109.133 322.047 109.484C322.285 109.836 322.404 110.238 322.404 110.691ZM321.314 110.668C321.314 110.352 321.246 110.072 321.109 109.83C320.973 109.584 320.781 109.393 320.535 109.256C320.289 109.119 320.004 109.051 319.68 109.051C319.348 109.051 319.061 109.119 318.818 109.256C318.58 109.393 318.395 109.584 318.262 109.83C318.129 110.072 318.062 110.352 318.062 110.668C318.062 110.996 318.127 111.277 318.256 111.512C318.389 111.742 318.576 111.92 318.818 112.045C319.064 112.166 319.355 112.227 319.691 112.227C320.027 112.227 320.316 112.166 320.559 112.045C320.801 111.92 320.986 111.742 321.115 111.512C321.248 111.277 321.314 110.996 321.314 110.668ZM322.205 106.689C322.205 107.104 322.096 107.477 321.877 107.809C321.658 108.141 321.359 108.402 320.98 108.594C320.602 108.785 320.172 108.881 319.691 108.881C319.203 108.881 318.768 108.785 318.385 108.594C318.006 108.402 317.709 108.141 317.494 107.809C317.279 107.477 317.172 107.104 317.172 106.689C317.172 106.193 317.279 105.771 317.494 105.424C317.713 105.076 318.012 104.811 318.391 104.627C318.77 104.443 319.201 104.352 319.686 104.352C320.174 104.352 320.607 104.443 320.986 104.627C321.365 104.811 321.662 105.076 321.877 105.424C322.096 105.771 322.205 106.193 322.205 106.689ZM321.121 106.707C321.121 106.422 321.061 106.17 320.939 105.951C320.818 105.732 320.65 105.561 320.436 105.436C320.221 105.307 319.971 105.242 319.686 105.242C319.4 105.242 319.15 105.303 318.936 105.424C318.725 105.541 318.559 105.709 318.438 105.928C318.32 106.146 318.262 106.406 318.262 106.707C318.262 107 318.32 107.256 318.438 107.475C318.559 107.693 318.727 107.863 318.941 107.984C319.156 108.105 319.406 108.166 319.691 108.166C319.977 108.166 320.225 108.105 320.436 107.984C320.65 107.863 320.818 107.693 320.939 107.475C321.061 107.256 321.121 107 321.121 106.707ZM323.682 106.561V106.109C323.682 105.785 323.752 105.49 323.893 105.225C324.033 104.959 324.234 104.746 324.496 104.586C324.758 104.426 325.068 104.346 325.428 104.346C325.795 104.346 326.107 104.426 326.365 104.586C326.627 104.746 326.828 104.959 326.969 105.225C327.109 105.49 327.18 105.785 327.18 106.109V106.561C327.18 106.877 327.109 107.168 326.969 107.434C326.832 107.699 326.633 107.912 326.371 108.072C326.113 108.232 325.803 108.312 325.439 108.312C325.076 108.312 324.762 108.232 324.496 108.072C324.234 107.912 324.033 107.699 323.893 107.434C323.752 107.168 323.682 106.877 323.682 106.561ZM324.496 106.109V106.561C324.496 106.74 324.529 106.91 324.596 107.07C324.666 107.23 324.771 107.361 324.912 107.463C325.053 107.561 325.229 107.609 325.439 107.609C325.65 107.609 325.824 107.561 325.961 107.463C326.098 107.361 326.199 107.23 326.266 107.07C326.332 106.91 326.365 106.74 326.365 106.561V106.109C326.365 105.926 326.33 105.754 326.26 105.594C326.193 105.43 326.09 105.299 325.949 105.201C325.812 105.1 325.639 105.049 325.428 105.049C325.221 105.049 325.047 105.1 324.906 105.201C324.77 105.299 324.666 105.43 324.596 105.594C324.529 105.754 324.496 105.926 324.496 106.109ZM327.836 111.365V110.908C327.836 110.588 327.906 110.295 328.047 110.029C328.188 109.764 328.389 109.551 328.65 109.391C328.912 109.23 329.223 109.15 329.582 109.15C329.949 109.15 330.262 109.23 330.52 109.391C330.781 109.551 330.982 109.764 331.123 110.029C331.264 110.295 331.334 110.588 331.334 110.908V111.365C331.334 111.686 331.264 111.979 331.123 112.244C330.986 112.51 330.787 112.723 330.525 112.883C330.268 113.043 329.957 113.123 329.594 113.123C329.23 113.123 328.918 113.043 328.656 112.883C328.395 112.723 328.191 112.51 328.047 112.244C327.906 111.979 327.836 111.686 327.836 111.365ZM328.65 110.908V111.365C328.65 111.545 328.684 111.717 328.75 111.881C328.82 112.041 328.926 112.172 329.066 112.273C329.207 112.371 329.383 112.42 329.594 112.42C329.805 112.42 329.979 112.371 330.115 112.273C330.256 112.172 330.359 112.041 330.426 111.881C330.492 111.721 330.525 111.549 330.525 111.365V110.908C330.525 110.725 330.49 110.553 330.42 110.393C330.354 110.232 330.25 110.104 330.109 110.006C329.973 109.904 329.797 109.854 329.582 109.854C329.375 109.854 329.201 109.904 329.061 110.006C328.924 110.104 328.82 110.232 328.75 110.393C328.684 110.553 328.65 110.725 328.65 110.908ZM329.852 105.682L325.686 112.35L325.076 111.963L329.242 105.295L329.852 105.682ZM337.275 113H336.191V105.992C336.191 105.535 336.273 105.15 336.438 104.838C336.605 104.521 336.846 104.283 337.158 104.123C337.471 103.959 337.842 103.877 338.271 103.877C338.396 103.877 338.521 103.885 338.646 103.9C338.775 103.916 338.9 103.939 339.021 103.971L338.963 104.855C338.881 104.836 338.787 104.822 338.682 104.814C338.58 104.807 338.479 104.803 338.377 104.803C338.146 104.803 337.947 104.85 337.779 104.943C337.615 105.033 337.49 105.166 337.404 105.342C337.318 105.518 337.275 105.734 337.275 105.992V113ZM338.623 106.66V107.492H335.189V106.66H338.623ZM340.914 107.656V113H339.83V106.66H340.885L340.914 107.656ZM342.895 106.625L342.889 107.633C342.799 107.613 342.713 107.602 342.631 107.598C342.553 107.59 342.463 107.586 342.361 107.586C342.111 107.586 341.891 107.625 341.699 107.703C341.508 107.781 341.346 107.891 341.213 108.031C341.08 108.172 340.975 108.34 340.896 108.535C340.822 108.727 340.773 108.938 340.75 109.168L340.445 109.344C340.445 108.961 340.482 108.602 340.557 108.266C340.635 107.93 340.754 107.633 340.914 107.375C341.074 107.113 341.277 106.91 341.523 106.766C341.773 106.617 342.07 106.543 342.414 106.543C342.492 106.543 342.582 106.553 342.684 106.572C342.785 106.588 342.855 106.605 342.895 106.625ZM343.492 109.9V109.766C343.492 109.309 343.559 108.885 343.691 108.494C343.824 108.1 344.016 107.758 344.266 107.469C344.516 107.176 344.818 106.949 345.174 106.789C345.529 106.625 345.928 106.543 346.369 106.543C346.814 106.543 347.215 106.625 347.57 106.789C347.93 106.949 348.234 107.176 348.484 107.469C348.738 107.758 348.932 108.1 349.064 108.494C349.197 108.885 349.264 109.309 349.264 109.766V109.9C349.264 110.357 349.197 110.781 349.064 111.172C348.932 111.562 348.738 111.904 348.484 112.197C348.234 112.486 347.932 112.713 347.576 112.877C347.225 113.037 346.826 113.117 346.381 113.117C345.936 113.117 345.535 113.037 345.18 112.877C344.824 112.713 344.52 112.486 344.266 112.197C344.016 111.904 343.824 111.562 343.691 111.172C343.559 110.781 343.492 110.357 343.492 109.9ZM344.576 109.766V109.9C344.576 110.217 344.613 110.516 344.688 110.797C344.762 111.074 344.873 111.32 345.021 111.535C345.174 111.75 345.363 111.92 345.59 112.045C345.816 112.166 346.08 112.227 346.381 112.227C346.678 112.227 346.938 112.166 347.16 112.045C347.387 111.92 347.574 111.75 347.723 111.535C347.871 111.32 347.982 111.074 348.057 110.797C348.135 110.516 348.174 110.217 348.174 109.9V109.766C348.174 109.453 348.135 109.158 348.057 108.881C347.982 108.6 347.869 108.352 347.717 108.137C347.568 107.918 347.381 107.746 347.154 107.621C346.932 107.496 346.67 107.434 346.369 107.434C346.072 107.434 345.811 107.496 345.584 107.621C345.361 107.746 345.174 107.918 345.021 108.137C344.873 108.352 344.762 108.6 344.688 108.881C344.613 109.158 344.576 109.453 344.576 109.766ZM351.701 107.92V113H350.611V106.66H351.643L351.701 107.92ZM351.479 109.59L350.975 109.572C350.979 109.139 351.035 108.738 351.145 108.371C351.254 108 351.416 107.678 351.631 107.404C351.846 107.131 352.113 106.92 352.434 106.771C352.754 106.619 353.125 106.543 353.547 106.543C353.844 106.543 354.117 106.586 354.367 106.672C354.617 106.754 354.834 106.885 355.018 107.064C355.201 107.244 355.344 107.475 355.445 107.756C355.547 108.037 355.598 108.377 355.598 108.775V113H354.514V108.828C354.514 108.496 354.457 108.23 354.344 108.031C354.234 107.832 354.078 107.688 353.875 107.598C353.672 107.504 353.434 107.457 353.16 107.457C352.84 107.457 352.572 107.514 352.357 107.627C352.143 107.74 351.971 107.896 351.842 108.096C351.713 108.295 351.619 108.523 351.561 108.781C351.506 109.035 351.479 109.305 351.479 109.59ZM355.586 108.992L354.859 109.215C354.863 108.867 354.92 108.533 355.029 108.213C355.143 107.893 355.305 107.607 355.516 107.357C355.73 107.107 355.994 106.91 356.307 106.766C356.619 106.617 356.977 106.543 357.379 106.543C357.719 106.543 358.02 106.588 358.281 106.678C358.547 106.768 358.77 106.906 358.949 107.094C359.133 107.277 359.271 107.514 359.365 107.803C359.459 108.092 359.506 108.436 359.506 108.834V113H358.416V108.822C358.416 108.467 358.359 108.191 358.246 107.996C358.137 107.797 357.98 107.658 357.777 107.58C357.578 107.498 357.34 107.457 357.062 107.457C356.824 107.457 356.613 107.498 356.43 107.58C356.246 107.662 356.092 107.775 355.967 107.92C355.842 108.061 355.746 108.223 355.68 108.406C355.617 108.59 355.586 108.785 355.586 108.992ZM365.418 104.469V113H364.287V104.469H365.418ZM368.992 108.307V109.232H365.172V108.307H368.992ZM369.572 104.469V105.395H365.172V104.469H369.572ZM373.258 113.117C372.816 113.117 372.416 113.043 372.057 112.895C371.701 112.742 371.395 112.529 371.137 112.256C370.883 111.982 370.688 111.658 370.551 111.283C370.414 110.908 370.346 110.498 370.346 110.053V109.807C370.346 109.291 370.422 108.832 370.574 108.43C370.727 108.023 370.934 107.68 371.195 107.398C371.457 107.117 371.754 106.904 372.086 106.76C372.418 106.615 372.762 106.543 373.117 106.543C373.57 106.543 373.961 106.621 374.289 106.777C374.621 106.934 374.893 107.152 375.104 107.434C375.314 107.711 375.471 108.039 375.572 108.418C375.674 108.793 375.725 109.203 375.725 109.648V110.135H370.99V109.25H374.641V109.168C374.625 108.887 374.566 108.613 374.465 108.348C374.367 108.082 374.211 107.863 373.996 107.691C373.781 107.52 373.488 107.434 373.117 107.434C372.871 107.434 372.645 107.486 372.438 107.592C372.23 107.693 372.053 107.846 371.904 108.049C371.756 108.252 371.641 108.5 371.559 108.793C371.477 109.086 371.436 109.424 371.436 109.807V110.053C371.436 110.354 371.477 110.637 371.559 110.902C371.645 111.164 371.768 111.395 371.928 111.594C372.092 111.793 372.289 111.949 372.52 112.062C372.754 112.176 373.02 112.232 373.316 112.232C373.699 112.232 374.023 112.154 374.289 111.998C374.555 111.842 374.787 111.633 374.986 111.371L375.643 111.893C375.506 112.1 375.332 112.297 375.121 112.484C374.91 112.672 374.65 112.824 374.342 112.941C374.037 113.059 373.676 113.117 373.258 113.117ZM376.984 104H378.074V111.77L377.98 113H376.984V104ZM382.357 109.777V109.9C382.357 110.361 382.303 110.789 382.193 111.184C382.084 111.574 381.924 111.914 381.713 112.203C381.502 112.492 381.244 112.717 380.939 112.877C380.635 113.037 380.285 113.117 379.891 113.117C379.488 113.117 379.135 113.049 378.83 112.912C378.529 112.771 378.275 112.57 378.068 112.309C377.861 112.047 377.695 111.73 377.57 111.359C377.449 110.988 377.365 110.57 377.318 110.105V109.566C377.365 109.098 377.449 108.678 377.57 108.307C377.695 107.936 377.861 107.619 378.068 107.357C378.275 107.092 378.529 106.891 378.83 106.754C379.131 106.613 379.48 106.543 379.879 106.543C380.277 106.543 380.631 106.621 380.939 106.777C381.248 106.93 381.506 107.148 381.713 107.434C381.924 107.719 382.084 108.061 382.193 108.459C382.303 108.854 382.357 109.293 382.357 109.777ZM381.268 109.9V109.777C381.268 109.461 381.238 109.164 381.18 108.887C381.121 108.605 381.027 108.359 380.898 108.148C380.77 107.934 380.6 107.766 380.389 107.645C380.178 107.52 379.918 107.457 379.609 107.457C379.336 107.457 379.098 107.504 378.895 107.598C378.695 107.691 378.525 107.818 378.385 107.979C378.244 108.135 378.129 108.314 378.039 108.518C377.953 108.717 377.889 108.924 377.846 109.139V110.551C377.908 110.824 378.01 111.088 378.15 111.342C378.295 111.592 378.486 111.797 378.725 111.957C378.967 112.117 379.266 112.197 379.621 112.197C379.914 112.197 380.164 112.139 380.371 112.021C380.582 111.9 380.752 111.734 380.881 111.523C381.014 111.312 381.111 111.068 381.174 110.791C381.236 110.514 381.268 110.217 381.268 109.9ZM384.812 107.656V113H383.729V106.66H384.783L384.812 107.656ZM386.793 106.625L386.787 107.633C386.697 107.613 386.611 107.602 386.529 107.598C386.451 107.59 386.361 107.586 386.26 107.586C386.01 107.586 385.789 107.625 385.598 107.703C385.406 107.781 385.244 107.891 385.111 108.031C384.979 108.172 384.873 108.34 384.795 108.535C384.721 108.727 384.672 108.938 384.648 109.168L384.344 109.344C384.344 108.961 384.381 108.602 384.455 108.266C384.533 107.93 384.652 107.633 384.812 107.375C384.973 107.113 385.176 106.91 385.422 106.766C385.672 106.617 385.969 106.543 386.312 106.543C386.391 106.543 386.48 106.553 386.582 106.572C386.684 106.588 386.754 106.605 386.793 106.625ZM391.674 111.535V106.66H392.764V113H391.727L391.674 111.535ZM391.879 110.199L392.33 110.188C392.33 110.609 392.285 111 392.195 111.359C392.109 111.715 391.969 112.023 391.773 112.285C391.578 112.547 391.322 112.752 391.006 112.9C390.689 113.045 390.305 113.117 389.852 113.117C389.543 113.117 389.26 113.072 389.002 112.982C388.748 112.893 388.529 112.754 388.346 112.566C388.162 112.379 388.02 112.135 387.918 111.834C387.82 111.533 387.771 111.172 387.771 110.75V106.66H388.855V110.762C388.855 111.047 388.887 111.283 388.949 111.471C389.016 111.654 389.104 111.801 389.213 111.91C389.326 112.016 389.451 112.09 389.588 112.133C389.729 112.176 389.873 112.197 390.021 112.197C390.482 112.197 390.848 112.109 391.117 111.934C391.387 111.754 391.58 111.514 391.697 111.213C391.818 110.908 391.879 110.57 391.879 110.199ZM398.154 111.916V108.652C398.154 108.402 398.104 108.186 398.002 108.002C397.904 107.814 397.756 107.67 397.557 107.568C397.357 107.467 397.111 107.416 396.818 107.416C396.545 107.416 396.305 107.463 396.098 107.557C395.895 107.65 395.734 107.773 395.617 107.926C395.504 108.078 395.447 108.242 395.447 108.418H394.363C394.363 108.191 394.422 107.967 394.539 107.744C394.656 107.521 394.824 107.32 395.043 107.141C395.266 106.957 395.531 106.812 395.84 106.707C396.152 106.598 396.5 106.543 396.883 106.543C397.344 106.543 397.75 106.621 398.102 106.777C398.457 106.934 398.734 107.17 398.934 107.486C399.137 107.799 399.238 108.191 399.238 108.664V111.617C399.238 111.828 399.256 112.053 399.291 112.291C399.33 112.529 399.387 112.734 399.461 112.906V113H398.33C398.275 112.875 398.232 112.709 398.201 112.502C398.17 112.291 398.154 112.096 398.154 111.916ZM398.342 109.156L398.354 109.918H397.258C396.949 109.918 396.674 109.943 396.432 109.994C396.189 110.041 395.986 110.113 395.822 110.211C395.658 110.309 395.533 110.432 395.447 110.58C395.361 110.725 395.318 110.895 395.318 111.09C395.318 111.289 395.363 111.471 395.453 111.635C395.543 111.799 395.678 111.93 395.857 112.027C396.041 112.121 396.266 112.168 396.531 112.168C396.863 112.168 397.156 112.098 397.41 111.957C397.664 111.816 397.865 111.645 398.014 111.441C398.166 111.238 398.248 111.041 398.26 110.85L398.723 111.371C398.695 111.535 398.621 111.717 398.5 111.916C398.379 112.115 398.217 112.307 398.014 112.49C397.814 112.67 397.576 112.82 397.299 112.941C397.025 113.059 396.717 113.117 396.373 113.117C395.943 113.117 395.566 113.033 395.242 112.865C394.922 112.697 394.672 112.473 394.492 112.191C394.316 111.906 394.229 111.588 394.229 111.236C394.229 110.896 394.295 110.598 394.428 110.34C394.561 110.078 394.752 109.861 395.002 109.689C395.252 109.514 395.553 109.381 395.904 109.291C396.256 109.201 396.648 109.156 397.082 109.156H398.342ZM402.027 107.656V113H400.943V106.66H401.998L402.027 107.656ZM404.008 106.625L404.002 107.633C403.912 107.613 403.826 107.602 403.744 107.598C403.666 107.59 403.576 107.586 403.475 107.586C403.225 107.586 403.004 107.625 402.812 107.703C402.621 107.781 402.459 107.891 402.326 108.031C402.193 108.172 402.088 108.34 402.01 108.535C401.936 108.727 401.887 108.938 401.863 109.168L401.559 109.344C401.559 108.961 401.596 108.602 401.67 108.266C401.748 107.93 401.867 107.633 402.027 107.375C402.188 107.113 402.391 106.91 402.637 106.766C402.887 106.617 403.184 106.543 403.527 106.543C403.605 106.543 403.695 106.553 403.797 106.572C403.898 106.588 403.969 106.605 404.008 106.625ZM406.896 112.344L408.66 106.66H409.82L407.277 113.979C407.219 114.135 407.141 114.303 407.043 114.482C406.949 114.666 406.828 114.84 406.68 115.004C406.531 115.168 406.352 115.301 406.141 115.402C405.934 115.508 405.686 115.561 405.396 115.561C405.311 115.561 405.201 115.549 405.068 115.525C404.936 115.502 404.842 115.482 404.787 115.467L404.781 114.588C404.812 114.592 404.861 114.596 404.928 114.6C404.998 114.607 405.047 114.611 405.074 114.611C405.32 114.611 405.529 114.578 405.701 114.512C405.873 114.449 406.018 114.342 406.135 114.189C406.256 114.041 406.359 113.836 406.445 113.574L406.896 112.344ZM405.602 106.66L407.248 111.582L407.529 112.725L406.75 113.123L404.418 106.66H405.602Z" fill="#252C58"/>
</g>
<path id="Avg. Actual Work Hours" d="M297.531 81.6328L293.766 92H292.227L296.562 80.625H297.555L297.531 81.6328ZM300.688 92L296.914 81.6328L296.891 80.625H297.883L302.234 92H300.688ZM300.492 87.7891V89.0234H294.102V87.7891H300.492ZM305.719 90.6953L308.031 83.5469H309.508L306.469 92H305.5L305.719 90.6953ZM303.789 83.5469L306.172 90.7344L306.336 92H305.367L302.305 83.5469H303.789ZM316.266 83.5469H317.578V91.8203C317.578 92.5651 317.427 93.2005 317.125 93.7266C316.823 94.2526 316.401 94.651 315.859 94.9219C315.323 95.1979 314.703 95.3359 314 95.3359C313.708 95.3359 313.365 95.2891 312.969 95.1953C312.578 95.1068 312.193 94.9531 311.812 94.7344C311.438 94.5208 311.122 94.2318 310.867 93.8672L311.625 93.0078C311.979 93.4349 312.349 93.7318 312.734 93.8984C313.125 94.0651 313.51 94.1484 313.891 94.1484C314.349 94.1484 314.745 94.0625 315.078 93.8906C315.411 93.7188 315.669 93.4635 315.852 93.125C316.039 92.7917 316.133 92.3802 316.133 91.8906V85.4062L316.266 83.5469ZM310.445 87.8672V87.7031C310.445 87.0573 310.521 86.4714 310.672 85.9453C310.828 85.4141 311.049 84.9583 311.336 84.5781C311.628 84.1979 311.979 83.9062 312.391 83.7031C312.802 83.4948 313.266 83.3906 313.781 83.3906C314.312 83.3906 314.776 83.4844 315.172 83.6719C315.573 83.8542 315.911 84.1224 316.188 84.4766C316.469 84.8255 316.69 85.2474 316.852 85.7422C317.013 86.237 317.125 86.7969 317.188 87.4219V88.1406C317.13 88.7604 317.018 89.3177 316.852 89.8125C316.69 90.3073 316.469 90.7292 316.188 91.0781C315.911 91.4271 315.573 91.6953 315.172 91.8828C314.771 92.0651 314.302 92.1562 313.766 92.1562C313.26 92.1562 312.802 92.0495 312.391 91.8359C311.984 91.6224 311.635 91.3229 311.344 90.9375C311.052 90.5521 310.828 90.099 310.672 89.5781C310.521 89.0521 310.445 88.4818 310.445 87.8672ZM311.891 87.7031V87.8672C311.891 88.2891 311.932 88.6849 312.016 89.0547C312.104 89.4245 312.237 89.75 312.414 90.0312C312.596 90.3125 312.828 90.5339 313.109 90.6953C313.391 90.8516 313.727 90.9297 314.117 90.9297C314.596 90.9297 314.992 90.8281 315.305 90.625C315.617 90.4219 315.865 90.1536 316.047 89.8203C316.234 89.487 316.38 89.125 316.484 88.7344V86.8516C316.427 86.5651 316.339 86.2891 316.219 86.0234C316.104 85.7526 315.953 85.513 315.766 85.3047C315.583 85.0911 315.357 84.9219 315.086 84.7969C314.815 84.6719 314.497 84.6094 314.133 84.6094C313.737 84.6094 313.396 84.6927 313.109 84.8594C312.828 85.0208 312.596 85.2448 312.414 85.5312C312.237 85.8125 312.104 86.1406 312.016 86.5156C311.932 86.8854 311.891 87.2812 311.891 87.7031ZM319.797 91.2344C319.797 90.9896 319.872 90.7839 320.023 90.6172C320.18 90.4453 320.404 90.3594 320.695 90.3594C320.987 90.3594 321.208 90.4453 321.359 90.6172C321.516 90.7839 321.594 90.9896 321.594 91.2344C321.594 91.474 321.516 91.6771 321.359 91.8438C321.208 92.0104 320.987 92.0938 320.695 92.0938C320.404 92.0938 320.18 92.0104 320.023 91.8438C319.872 91.6771 319.797 91.474 319.797 91.2344ZM332.391 81.6328L328.625 92H327.086L331.422 80.625H332.414L332.391 81.6328ZM335.547 92L331.773 81.6328L331.75 80.625H332.742L337.094 92H335.547ZM335.352 87.7891V89.0234H328.961V87.7891H335.352ZM341.781 90.9688C342.125 90.9688 342.443 90.8984 342.734 90.7578C343.026 90.6172 343.266 90.4245 343.453 90.1797C343.641 89.9297 343.747 89.6458 343.773 89.3281H345.148C345.122 89.8281 344.953 90.2943 344.641 90.7266C344.333 91.1536 343.93 91.5 343.43 91.7656C342.93 92.026 342.38 92.1562 341.781 92.1562C341.146 92.1562 340.591 92.0443 340.117 91.8203C339.648 91.5964 339.258 91.2891 338.945 90.8984C338.638 90.5078 338.406 90.0599 338.25 89.5547C338.099 89.0443 338.023 88.5052 338.023 87.9375V87.6094C338.023 87.0417 338.099 86.5052 338.25 86C338.406 85.4896 338.638 85.0391 338.945 84.6484C339.258 84.2578 339.648 83.9505 340.117 83.7266C340.591 83.5026 341.146 83.3906 341.781 83.3906C342.443 83.3906 343.021 83.526 343.516 83.7969C344.01 84.0625 344.398 84.4271 344.68 84.8906C344.966 85.349 345.122 85.8698 345.148 86.4531H343.773C343.747 86.1042 343.648 85.7891 343.477 85.5078C343.31 85.2266 343.081 85.0026 342.789 84.8359C342.503 84.6641 342.167 84.5781 341.781 84.5781C341.339 84.5781 340.966 84.6667 340.664 84.8438C340.367 85.0156 340.13 85.25 339.953 85.5469C339.781 85.8385 339.656 86.1641 339.578 86.5234C339.505 86.8776 339.469 87.2396 339.469 87.6094V87.9375C339.469 88.3073 339.505 88.6719 339.578 89.0312C339.651 89.3906 339.773 89.7161 339.945 90.0078C340.122 90.2995 340.359 90.5339 340.656 90.7109C340.958 90.8828 341.333 90.9688 341.781 90.9688ZM350.312 83.5469V84.6562H345.742V83.5469H350.312ZM347.289 81.4922H348.734V89.9062C348.734 90.1927 348.779 90.4089 348.867 90.5547C348.956 90.7005 349.07 90.7969 349.211 90.8438C349.352 90.8906 349.503 90.9141 349.664 90.9141C349.784 90.9141 349.909 90.9036 350.039 90.8828C350.174 90.8568 350.276 90.8359 350.344 90.8203L350.352 92C350.237 92.0365 350.086 92.0703 349.898 92.1016C349.716 92.138 349.495 92.1562 349.234 92.1562C348.88 92.1562 348.555 92.0859 348.258 91.9453C347.961 91.8047 347.724 91.5703 347.547 91.2422C347.375 90.9089 347.289 90.4609 347.289 89.8984V81.4922ZM357.18 90.0469V83.5469H358.633V92H357.25L357.18 90.0469ZM357.453 88.2656L358.055 88.25C358.055 88.8125 357.995 89.3333 357.875 89.8125C357.76 90.2865 357.573 90.6979 357.312 91.0469C357.052 91.3958 356.711 91.6693 356.289 91.8672C355.867 92.0599 355.354 92.1562 354.75 92.1562C354.339 92.1562 353.961 92.0964 353.617 91.9766C353.279 91.8568 352.987 91.6719 352.742 91.4219C352.497 91.1719 352.307 90.8464 352.172 90.4453C352.042 90.0443 351.977 89.5625 351.977 89V83.5469H353.422V89.0156C353.422 89.3958 353.464 89.7109 353.547 89.9609C353.635 90.2057 353.753 90.401 353.898 90.5469C354.049 90.6875 354.216 90.7865 354.398 90.8438C354.586 90.901 354.779 90.9297 354.977 90.9297C355.591 90.9297 356.078 90.8125 356.438 90.5781C356.797 90.3385 357.055 90.0182 357.211 89.6172C357.372 89.2109 357.453 88.7604 357.453 88.2656ZM365.82 90.5547V86.2031C365.82 85.8698 365.753 85.5807 365.617 85.3359C365.487 85.0859 365.289 84.8932 365.023 84.7578C364.758 84.6224 364.43 84.5547 364.039 84.5547C363.674 84.5547 363.354 84.6172 363.078 84.7422C362.807 84.8672 362.594 85.0312 362.438 85.2344C362.286 85.4375 362.211 85.6562 362.211 85.8906H360.766C360.766 85.5885 360.844 85.2891 361 84.9922C361.156 84.6953 361.38 84.4271 361.672 84.1875C361.969 83.9427 362.323 83.75 362.734 83.6094C363.151 83.4635 363.615 83.3906 364.125 83.3906C364.74 83.3906 365.281 83.4948 365.75 83.7031C366.224 83.9115 366.594 84.2266 366.859 84.6484C367.13 85.0651 367.266 85.5885 367.266 86.2188V90.1562C367.266 90.4375 367.289 90.737 367.336 91.0547C367.388 91.3724 367.464 91.6458 367.562 91.875V92H366.055C365.982 91.8333 365.924 91.612 365.883 91.3359C365.841 91.0547 365.82 90.7943 365.82 90.5547ZM366.07 86.875L366.086 87.8906H364.625C364.214 87.8906 363.846 87.9245 363.523 87.9922C363.201 88.0547 362.93 88.151 362.711 88.2812C362.492 88.4115 362.326 88.5755 362.211 88.7734C362.096 88.9661 362.039 89.1927 362.039 89.4531C362.039 89.7188 362.099 89.9609 362.219 90.1797C362.339 90.3984 362.518 90.5729 362.758 90.7031C363.003 90.8281 363.302 90.8906 363.656 90.8906C364.099 90.8906 364.49 90.7969 364.828 90.6094C365.167 90.4219 365.435 90.1927 365.633 89.9219C365.836 89.651 365.945 89.388 365.961 89.1328L366.578 89.8281C366.542 90.0469 366.443 90.2891 366.281 90.5547C366.12 90.8203 365.904 91.0755 365.633 91.3203C365.367 91.5599 365.049 91.7604 364.68 91.9219C364.315 92.0781 363.904 92.1562 363.445 92.1562C362.872 92.1562 362.37 92.0443 361.938 91.8203C361.51 91.5964 361.177 91.2969 360.938 90.9219C360.703 90.5417 360.586 90.1172 360.586 89.6484C360.586 89.1953 360.674 88.7969 360.852 88.4531C361.029 88.1042 361.284 87.8151 361.617 87.5859C361.951 87.3516 362.352 87.1745 362.82 87.0547C363.289 86.9349 363.812 86.875 364.391 86.875H366.07ZM371.109 80V92H369.656V80H371.109ZM380.609 88.5625L382.867 80.625H383.961L383.328 83.7109L380.898 92H379.812L380.609 88.5625ZM378.273 80.625L380.07 88.4062L380.609 92H379.531L376.773 80.625H378.273ZM386.883 88.3984L388.641 80.625H390.148L387.398 92H386.32L386.883 88.3984ZM384.125 80.625L386.32 88.5625L387.117 92H386.031L383.688 83.7109L383.047 80.625H384.125ZM390.969 87.8672V87.6875C390.969 87.0781 391.057 86.513 391.234 85.9922C391.411 85.4661 391.667 85.0104 392 84.625C392.333 84.2344 392.737 83.9323 393.211 83.7188C393.685 83.5 394.216 83.3906 394.805 83.3906C395.398 83.3906 395.932 83.5 396.406 83.7188C396.885 83.9323 397.292 84.2344 397.625 84.625C397.964 85.0104 398.221 85.4661 398.398 85.9922C398.576 86.513 398.664 87.0781 398.664 87.6875V87.8672C398.664 88.4766 398.576 89.0417 398.398 89.5625C398.221 90.0833 397.964 90.5391 397.625 90.9297C397.292 91.3151 396.888 91.6172 396.414 91.8359C395.945 92.0495 395.414 92.1562 394.82 92.1562C394.227 92.1562 393.693 92.0495 393.219 91.8359C392.745 91.6172 392.339 91.3151 392 90.9297C391.667 90.5391 391.411 90.0833 391.234 89.5625C391.057 89.0417 390.969 88.4766 390.969 87.8672ZM392.414 87.6875V87.8672C392.414 88.2891 392.464 88.6875 392.562 89.0625C392.661 89.4323 392.81 89.7604 393.008 90.0469C393.211 90.3333 393.464 90.5599 393.766 90.7266C394.068 90.888 394.419 90.9688 394.82 90.9688C395.216 90.9688 395.562 90.888 395.859 90.7266C396.161 90.5599 396.411 90.3333 396.609 90.0469C396.807 89.7604 396.956 89.4323 397.055 89.0625C397.159 88.6875 397.211 88.2891 397.211 87.8672V87.6875C397.211 87.2708 397.159 86.8776 397.055 86.5078C396.956 86.1328 396.805 85.8021 396.602 85.5156C396.404 85.224 396.154 84.9948 395.852 84.8281C395.555 84.6615 395.206 84.5781 394.805 84.5781C394.409 84.5781 394.06 84.6615 393.758 84.8281C393.461 84.9948 393.211 85.224 393.008 85.5156C392.81 85.8021 392.661 86.1328 392.562 86.5078C392.464 86.8776 392.414 87.2708 392.414 87.6875ZM401.922 84.875V92H400.477V83.5469H401.883L401.922 84.875ZM404.562 83.5L404.555 84.8438C404.435 84.8177 404.32 84.8021 404.211 84.7969C404.107 84.7865 403.987 84.7812 403.852 84.7812C403.518 84.7812 403.224 84.8333 402.969 84.9375C402.714 85.0417 402.497 85.1875 402.32 85.375C402.143 85.5625 402.003 85.7865 401.898 86.0469C401.799 86.3021 401.734 86.5833 401.703 86.8906L401.297 87.125C401.297 86.6146 401.346 86.1354 401.445 85.6875C401.549 85.2396 401.708 84.8438 401.922 84.5C402.135 84.151 402.406 83.8802 402.734 83.6875C403.068 83.4896 403.464 83.3906 403.922 83.3906C404.026 83.3906 404.146 83.4036 404.281 83.4297C404.417 83.4505 404.51 83.474 404.562 83.5ZM407.352 80V92H405.898V80H407.352ZM412.516 83.5469L408.828 87.4922L406.766 89.6328L406.648 88.0938L408.125 86.3281L410.75 83.5469H412.516ZM411.195 92L408.18 87.9688L408.93 86.6797L412.898 92H411.195ZM425.625 85.5156V86.7422H419.469V85.5156H425.625ZM419.703 80.625V92H418.195V80.625H419.703ZM426.938 80.625V92H425.438V80.625H426.938ZM429.016 87.8672V87.6875C429.016 87.0781 429.104 86.513 429.281 85.9922C429.458 85.4661 429.714 85.0104 430.047 84.625C430.38 84.2344 430.784 83.9323 431.258 83.7188C431.732 83.5 432.263 83.3906 432.852 83.3906C433.445 83.3906 433.979 83.5 434.453 83.7188C434.932 83.9323 435.339 84.2344 435.672 84.625C436.01 85.0104 436.268 85.4661 436.445 85.9922C436.622 86.513 436.711 87.0781 436.711 87.6875V87.8672C436.711 88.4766 436.622 89.0417 436.445 89.5625C436.268 90.0833 436.01 90.5391 435.672 90.9297C435.339 91.3151 434.935 91.6172 434.461 91.8359C433.992 92.0495 433.461 92.1562 432.867 92.1562C432.273 92.1562 431.74 92.0495 431.266 91.8359C430.792 91.6172 430.385 91.3151 430.047 90.9297C429.714 90.5391 429.458 90.0833 429.281 89.5625C429.104 89.0417 429.016 88.4766 429.016 87.8672ZM430.461 87.6875V87.8672C430.461 88.2891 430.51 88.6875 430.609 89.0625C430.708 89.4323 430.857 89.7604 431.055 90.0469C431.258 90.3333 431.51 90.5599 431.812 90.7266C432.115 90.888 432.466 90.9688 432.867 90.9688C433.263 90.9688 433.609 90.888 433.906 90.7266C434.208 90.5599 434.458 90.3333 434.656 90.0469C434.854 89.7604 435.003 89.4323 435.102 89.0625C435.206 88.6875 435.258 88.2891 435.258 87.8672V87.6875C435.258 87.2708 435.206 86.8776 435.102 86.5078C435.003 86.1328 434.852 85.8021 434.648 85.5156C434.451 85.224 434.201 84.9948 433.898 84.8281C433.602 84.6615 433.253 84.5781 432.852 84.5781C432.456 84.5781 432.107 84.6615 431.805 84.8281C431.508 84.9948 431.258 85.224 431.055 85.5156C430.857 85.8021 430.708 86.1328 430.609 86.5078C430.51 86.8776 430.461 87.2708 430.461 87.6875ZM443.695 90.0469V83.5469H445.148V92H443.766L443.695 90.0469ZM443.969 88.2656L444.57 88.25C444.57 88.8125 444.51 89.3333 444.391 89.8125C444.276 90.2865 444.089 90.6979 443.828 91.0469C443.568 91.3958 443.227 91.6693 442.805 91.8672C442.383 92.0599 441.87 92.1562 441.266 92.1562C440.854 92.1562 440.477 92.0964 440.133 91.9766C439.794 91.8568 439.503 91.6719 439.258 91.4219C439.013 91.1719 438.823 90.8464 438.688 90.4453C438.557 90.0443 438.492 89.5625 438.492 89V83.5469H439.938V89.0156C439.938 89.3958 439.979 89.7109 440.062 89.9609C440.151 90.2057 440.268 90.401 440.414 90.5469C440.565 90.6875 440.732 90.7865 440.914 90.8438C441.102 90.901 441.294 90.9297 441.492 90.9297C442.107 90.9297 442.594 90.8125 442.953 90.5781C443.312 90.3385 443.57 90.0182 443.727 89.6172C443.888 89.2109 443.969 88.7604 443.969 88.2656ZM448.797 84.875V92H447.352V83.5469H448.758L448.797 84.875ZM451.438 83.5L451.43 84.8438C451.31 84.8177 451.195 84.8021 451.086 84.7969C450.982 84.7865 450.862 84.7812 450.727 84.7812C450.393 84.7812 450.099 84.8333 449.844 84.9375C449.589 85.0417 449.372 85.1875 449.195 85.375C449.018 85.5625 448.878 85.7865 448.773 86.0469C448.674 86.3021 448.609 86.5833 448.578 86.8906L448.172 87.125C448.172 86.6146 448.221 86.1354 448.32 85.6875C448.424 85.2396 448.583 84.8438 448.797 84.5C449.01 84.151 449.281 83.8802 449.609 83.6875C449.943 83.4896 450.339 83.3906 450.797 83.3906C450.901 83.3906 451.021 83.4036 451.156 83.4297C451.292 83.4505 451.385 83.474 451.438 83.5ZM457.695 89.7578C457.695 89.5495 457.648 89.3568 457.555 89.1797C457.466 88.9974 457.281 88.8333 457 88.6875C456.724 88.5365 456.307 88.4062 455.75 88.2969C455.281 88.1979 454.857 88.0807 454.477 87.9453C454.102 87.8099 453.781 87.6458 453.516 87.4531C453.255 87.2604 453.055 87.0339 452.914 86.7734C452.773 86.513 452.703 86.2083 452.703 85.8594C452.703 85.526 452.776 85.2109 452.922 84.9141C453.073 84.6172 453.284 84.3542 453.555 84.125C453.831 83.8958 454.161 83.7161 454.547 83.5859C454.932 83.4557 455.362 83.3906 455.836 83.3906C456.513 83.3906 457.091 83.5104 457.57 83.75C458.049 83.9896 458.417 84.3099 458.672 84.7109C458.927 85.1068 459.055 85.5469 459.055 86.0312H457.609C457.609 85.7969 457.539 85.5703 457.398 85.3516C457.263 85.1276 457.062 84.9427 456.797 84.7969C456.536 84.651 456.216 84.5781 455.836 84.5781C455.435 84.5781 455.109 84.6406 454.859 84.7656C454.615 84.8854 454.435 85.0391 454.32 85.2266C454.211 85.4141 454.156 85.612 454.156 85.8203C454.156 85.9766 454.182 86.1172 454.234 86.2422C454.292 86.362 454.391 86.474 454.531 86.5781C454.672 86.6771 454.87 86.7708 455.125 86.8594C455.38 86.9479 455.706 87.0365 456.102 87.125C456.794 87.2812 457.365 87.4688 457.812 87.6875C458.26 87.9062 458.594 88.1745 458.812 88.4922C459.031 88.8099 459.141 89.1953 459.141 89.6484C459.141 90.0182 459.062 90.3568 458.906 90.6641C458.755 90.9714 458.534 91.237 458.242 91.4609C457.956 91.6797 457.612 91.8516 457.211 91.9766C456.815 92.0964 456.37 92.1562 455.875 92.1562C455.13 92.1562 454.5 92.0234 453.984 91.7578C453.469 91.4922 453.078 91.1484 452.812 90.7266C452.547 90.3047 452.414 89.8594 452.414 89.3906H453.867C453.888 89.7865 454.003 90.1016 454.211 90.3359C454.419 90.5651 454.674 90.7292 454.977 90.8281C455.279 90.9219 455.578 90.9688 455.875 90.9688C456.271 90.9688 456.602 90.9167 456.867 90.8125C457.138 90.7083 457.344 90.5651 457.484 90.3828C457.625 90.2005 457.695 89.9922 457.695 89.7578Z" fill="#252C58"/>
<path id="08:20_2" d="M311.649 38.2285V42.6445C311.649 44.7598 311.439 46.5658 311.019 48.0625C310.61 49.5469 310.017 50.7529 309.237 51.6807C308.458 52.6084 307.524 53.2887 306.436 53.7217C305.359 54.1546 304.153 54.3711 302.817 54.3711C301.754 54.3711 300.764 54.235 299.849 53.9629C298.946 53.6908 298.129 53.264 297.399 52.6826C296.67 52.1012 296.045 51.3529 295.525 50.4375C295.018 49.5098 294.622 48.4027 294.338 47.1162C294.066 45.8298 293.93 44.3392 293.93 42.6445V38.2285C293.93 36.1009 294.14 34.3073 294.561 32.8477C294.981 31.3757 295.581 30.182 296.36 29.2666C297.14 28.3389 298.067 27.6647 299.144 27.2441C300.232 26.8236 301.444 26.6133 302.78 26.6133C303.856 26.6133 304.846 26.7493 305.749 27.0215C306.664 27.2812 307.481 27.6956 308.198 28.2646C308.928 28.8337 309.547 29.5758 310.054 30.4912C310.573 31.3942 310.969 32.4889 311.241 33.7754C311.513 35.0495 311.649 36.5339 311.649 38.2285ZM307.178 43.2754V37.5605C307.178 36.4844 307.116 35.5381 306.992 34.7217C306.868 33.8929 306.683 33.194 306.436 32.625C306.201 32.0436 305.904 31.5736 305.545 31.2148C305.186 30.8438 304.778 30.5778 304.32 30.417C303.863 30.2438 303.349 30.1572 302.78 30.1572C302.088 30.1572 301.469 30.2933 300.925 30.5654C300.381 30.8252 299.923 31.2458 299.552 31.8271C299.181 32.4085 298.896 33.1755 298.698 34.1279C298.513 35.068 298.42 36.2122 298.42 37.5605V43.2754C298.42 44.3639 298.482 45.3226 298.605 46.1514C298.729 46.9801 298.915 47.6914 299.162 48.2852C299.41 48.8665 299.706 49.349 300.053 49.7324C300.411 50.1035 300.82 50.3757 301.277 50.5488C301.747 50.722 302.261 50.8086 302.817 50.8086C303.522 50.8086 304.147 50.6725 304.691 50.4004C305.236 50.1283 305.693 49.6953 306.064 49.1016C306.436 48.4954 306.714 47.71 306.899 46.7451C307.085 45.7803 307.178 44.6237 307.178 43.2754ZM333.303 46.6338C333.303 48.3161 332.913 49.7324 332.134 50.8828C331.354 52.0332 330.291 52.9053 328.942 53.499C327.606 54.0804 326.097 54.3711 324.415 54.3711C322.733 54.3711 321.217 54.0804 319.869 53.499C318.521 52.9053 317.457 52.0332 316.678 50.8828C315.898 49.7324 315.509 48.3161 315.509 46.6338C315.509 45.5205 315.725 44.5124 316.158 43.6094C316.591 42.694 317.203 41.9085 317.995 41.2529C318.799 40.585 319.739 40.0716 320.815 39.7129C321.904 39.3542 323.091 39.1748 324.378 39.1748C326.085 39.1748 327.613 39.4902 328.961 40.1211C330.309 40.752 331.367 41.624 332.134 42.7373C332.913 43.8506 333.303 45.1494 333.303 46.6338ZM328.812 46.4111C328.812 45.5081 328.627 44.7165 328.256 44.0361C327.885 43.3558 327.365 42.8301 326.697 42.459C326.029 42.0879 325.256 41.9023 324.378 41.9023C323.487 41.9023 322.714 42.0879 322.059 42.459C321.403 42.8301 320.89 43.3558 320.519 44.0361C320.16 44.7165 319.98 45.5081 319.98 46.4111C319.98 47.3265 320.16 48.1182 320.519 48.7861C320.877 49.4417 321.391 49.9427 322.059 50.2891C322.727 50.6354 323.512 50.8086 324.415 50.8086C325.318 50.8086 326.097 50.6354 326.753 50.2891C327.409 49.9427 327.916 49.4417 328.274 48.7861C328.633 48.1182 328.812 47.3265 328.812 46.4111ZM332.69 34.0908C332.69 35.4391 332.332 36.639 331.614 37.6904C330.909 38.7419 329.932 39.5706 328.683 40.1768C327.433 40.7705 326.011 41.0674 324.415 41.0674C322.807 41.0674 321.372 40.7705 320.11 40.1768C318.861 39.5706 317.878 38.7419 317.16 37.6904C316.455 36.639 316.103 35.4391 316.103 34.0908C316.103 32.4827 316.455 31.1283 317.16 30.0273C317.878 28.9141 318.861 28.0667 320.11 27.4854C321.36 26.904 322.788 26.6133 324.396 26.6133C326.005 26.6133 327.433 26.904 328.683 27.4854C329.932 28.0667 330.909 28.9141 331.614 30.0273C332.332 31.1283 332.69 32.4827 332.69 34.0908ZM328.219 34.2393C328.219 33.4352 328.058 32.7301 327.736 32.124C327.427 31.5055 326.988 31.0231 326.419 30.6768C325.85 30.3304 325.176 30.1572 324.396 30.1572C323.617 30.1572 322.943 30.3242 322.374 30.6582C321.805 30.9922 321.366 31.4622 321.057 32.0684C320.747 32.6745 320.593 33.3981 320.593 34.2393C320.593 35.068 320.747 35.7917 321.057 36.4102C321.366 37.0163 321.805 37.4925 322.374 37.8389C322.955 38.1852 323.636 38.3584 324.415 38.3584C325.194 38.3584 325.868 38.1852 326.438 37.8389C327.007 37.4925 327.446 37.0163 327.755 36.4102C328.064 35.7917 328.219 35.068 328.219 34.2393ZM337.552 51.7734C337.552 51.0807 337.787 50.4993 338.257 50.0293C338.727 49.5469 339.364 49.3057 340.168 49.3057C340.984 49.3057 341.621 49.5469 342.079 50.0293C342.549 50.4993 342.784 51.0807 342.784 51.7734C342.784 52.4661 342.549 53.0475 342.079 53.5176C341.621 53.9876 340.984 54.2227 340.168 54.2227C339.364 54.2227 338.727 53.9876 338.257 53.5176C337.787 53.0475 337.552 52.4661 337.552 51.7734ZM337.57 35.9648C337.57 35.2721 337.805 34.6908 338.275 34.2207C338.745 33.7383 339.382 33.4971 340.187 33.4971C341.003 33.4971 341.64 33.7383 342.098 34.2207C342.568 34.6908 342.803 35.2721 342.803 35.9648C342.803 36.6576 342.568 37.2389 342.098 37.709C341.64 38.179 341.003 38.4141 340.187 38.4141C339.382 38.4141 338.745 38.179 338.275 37.709C337.805 37.2389 337.57 36.6576 337.57 35.9648ZM365.365 50.4375V54H347.256V50.9385L356.051 41.3457C357.016 40.2572 357.776 39.3171 358.333 38.5254C358.89 37.7337 359.279 37.0225 359.502 36.3916C359.737 35.7484 359.854 35.1237 359.854 34.5176C359.854 33.6641 359.694 32.9157 359.372 32.2725C359.063 31.6169 358.605 31.1035 357.999 30.7324C357.393 30.349 356.657 30.1572 355.791 30.1572C354.789 30.1572 353.948 30.3737 353.268 30.8066C352.587 31.2396 352.074 31.8395 351.728 32.6064C351.381 33.361 351.208 34.2269 351.208 35.2041H346.736C346.736 33.6331 347.095 32.1982 347.812 30.8994C348.53 29.5882 349.569 28.5492 350.93 27.7822C352.29 27.0029 353.929 26.6133 355.847 26.6133C357.653 26.6133 359.187 26.9163 360.448 27.5225C361.71 28.1286 362.669 28.9883 363.324 30.1016C363.992 31.2148 364.326 32.5322 364.326 34.0537C364.326 34.8949 364.19 35.7298 363.918 36.5586C363.646 37.3874 363.256 38.2161 362.749 39.0449C362.254 39.8613 361.667 40.6839 360.986 41.5127C360.306 42.3291 359.558 43.1579 358.741 43.999L352.896 50.4375H365.365ZM386.462 38.2285V42.6445C386.462 44.7598 386.252 46.5658 385.831 48.0625C385.423 49.5469 384.829 50.7529 384.05 51.6807C383.271 52.6084 382.337 53.2887 381.248 53.7217C380.172 54.1546 378.966 54.3711 377.63 54.3711C376.566 54.3711 375.576 54.235 374.661 53.9629C373.758 53.6908 372.942 53.264 372.212 52.6826C371.482 52.1012 370.857 51.3529 370.338 50.4375C369.831 49.5098 369.435 48.4027 369.15 47.1162C368.878 45.8298 368.742 44.3392 368.742 42.6445V38.2285C368.742 36.1009 368.952 34.3073 369.373 32.8477C369.794 31.3757 370.394 30.182 371.173 29.2666C371.952 28.3389 372.88 27.6647 373.956 27.2441C375.045 26.8236 376.257 26.6133 377.593 26.6133C378.669 26.6133 379.659 26.7493 380.562 27.0215C381.477 27.2812 382.293 27.6956 383.011 28.2646C383.741 28.8337 384.359 29.5758 384.866 30.4912C385.386 31.3942 385.782 32.4889 386.054 33.7754C386.326 35.0495 386.462 36.5339 386.462 38.2285ZM381.99 43.2754V37.5605C381.99 36.4844 381.928 35.5381 381.805 34.7217C381.681 33.8929 381.495 33.194 381.248 32.625C381.013 32.0436 380.716 31.5736 380.357 31.2148C379.999 30.8438 379.59 30.5778 379.133 30.417C378.675 30.2438 378.162 30.1572 377.593 30.1572C376.9 30.1572 376.282 30.2933 375.737 30.5654C375.193 30.8252 374.735 31.2458 374.364 31.8271C373.993 32.4085 373.709 33.1755 373.511 34.1279C373.325 35.068 373.232 36.2122 373.232 37.5605V43.2754C373.232 44.3639 373.294 45.3226 373.418 46.1514C373.542 46.9801 373.727 47.6914 373.975 48.2852C374.222 48.8665 374.519 49.349 374.865 49.7324C375.224 50.1035 375.632 50.3757 376.09 50.5488C376.56 50.722 377.073 50.8086 377.63 50.8086C378.335 50.8086 378.96 50.6725 379.504 50.4004C380.048 50.1283 380.506 49.6953 380.877 49.1016C381.248 48.4954 381.526 47.71 381.712 46.7451C381.897 45.7803 381.99 44.6237 381.99 43.2754Z" fill="#252C58"/>
</g>
</g>
<g id="Frame 1171275336_2">
<g id="Group 427318828_3">
<g id="Rectangle 26_3" filter="url(#filter2_d_294_1261)">
<rect x="532" width="250" height="134" rx="16" fill="white"/>
<rect x="532.5" y="0.5" width="249" height="133" rx="15.5" stroke="#D0DDFC"/>
</g>
<path id="Penalty Days" d="M563.516 87.5391H560.477V86.3125H563.516C564.104 86.3125 564.581 86.2188 564.945 86.0312C565.31 85.8438 565.576 85.5833 565.742 85.25C565.914 84.9167 566 84.5365 566 84.1094C566 83.7188 565.914 83.3516 565.742 83.0078C565.576 82.6641 565.31 82.388 564.945 82.1797C564.581 81.9661 564.104 81.8594 563.516 81.8594H560.828V92H559.32V80.625H563.516C564.375 80.625 565.102 80.7734 565.695 81.0703C566.289 81.3672 566.74 81.7786 567.047 82.3047C567.354 82.8255 567.508 83.4219 567.508 84.0938C567.508 84.8229 567.354 85.4453 567.047 85.9609C566.74 86.4766 566.289 86.8698 565.695 87.1406C565.102 87.4062 564.375 87.5391 563.516 87.5391ZM572.594 92.1562C572.005 92.1562 571.471 92.0573 570.992 91.8594C570.518 91.6562 570.109 91.3724 569.766 91.0078C569.427 90.6432 569.167 90.2109 568.984 89.7109C568.802 89.2109 568.711 88.6641 568.711 88.0703V87.7422C568.711 87.0547 568.812 86.4427 569.016 85.9062C569.219 85.3646 569.495 84.9062 569.844 84.5312C570.193 84.1562 570.589 83.8724 571.031 83.6797C571.474 83.487 571.932 83.3906 572.406 83.3906C573.01 83.3906 573.531 83.4948 573.969 83.7031C574.411 83.9115 574.773 84.2031 575.055 84.5781C575.336 84.9479 575.544 85.3854 575.68 85.8906C575.815 86.3906 575.883 86.9375 575.883 87.5312V88.1797H569.57V87H574.438V86.8906C574.417 86.5156 574.339 86.151 574.203 85.7969C574.073 85.4427 573.865 85.151 573.578 84.9219C573.292 84.6927 572.901 84.5781 572.406 84.5781C572.078 84.5781 571.776 84.6484 571.5 84.7891C571.224 84.9245 570.987 85.1276 570.789 85.3984C570.591 85.6693 570.438 86 570.328 86.3906C570.219 86.7812 570.164 87.2318 570.164 87.7422V88.0703C570.164 88.4714 570.219 88.849 570.328 89.2031C570.443 89.5521 570.607 89.8594 570.82 90.125C571.039 90.3906 571.302 90.599 571.609 90.75C571.922 90.901 572.276 90.9766 572.672 90.9766C573.182 90.9766 573.615 90.8724 573.969 90.6641C574.323 90.4557 574.633 90.1771 574.898 89.8281L575.773 90.5234C575.591 90.7995 575.359 91.0625 575.078 91.3125C574.797 91.5625 574.451 91.7656 574.039 91.9219C573.633 92.0781 573.151 92.1562 572.594 92.1562ZM579.016 85.3516V92H577.57V83.5469H578.938L579.016 85.3516ZM578.672 87.4531L578.07 87.4297C578.076 86.8516 578.161 86.3177 578.328 85.8281C578.495 85.3333 578.729 84.9036 579.031 84.5391C579.333 84.1745 579.693 83.8932 580.109 83.6953C580.531 83.4922 580.997 83.3906 581.508 83.3906C581.924 83.3906 582.299 83.4479 582.633 83.5625C582.966 83.6719 583.25 83.849 583.484 84.0938C583.724 84.3385 583.906 84.6562 584.031 85.0469C584.156 85.4323 584.219 85.9036 584.219 86.4609V92H582.766V86.4453C582.766 86.0026 582.701 85.6484 582.57 85.3828C582.44 85.112 582.25 84.9167 582 84.7969C581.75 84.6719 581.443 84.6094 581.078 84.6094C580.719 84.6094 580.391 84.6849 580.094 84.8359C579.802 84.987 579.549 85.1953 579.336 85.4609C579.128 85.7266 578.964 86.0312 578.844 86.375C578.729 86.7135 578.672 87.0729 578.672 87.4531ZM591.398 90.5547V86.2031C591.398 85.8698 591.331 85.5807 591.195 85.3359C591.065 85.0859 590.867 84.8932 590.602 84.7578C590.336 84.6224 590.008 84.5547 589.617 84.5547C589.253 84.5547 588.932 84.6172 588.656 84.7422C588.385 84.8672 588.172 85.0312 588.016 85.2344C587.865 85.4375 587.789 85.6562 587.789 85.8906H586.344C586.344 85.5885 586.422 85.2891 586.578 84.9922C586.734 84.6953 586.958 84.4271 587.25 84.1875C587.547 83.9427 587.901 83.75 588.312 83.6094C588.729 83.4635 589.193 83.3906 589.703 83.3906C590.318 83.3906 590.859 83.4948 591.328 83.7031C591.802 83.9115 592.172 84.2266 592.438 84.6484C592.708 85.0651 592.844 85.5885 592.844 86.2188V90.1562C592.844 90.4375 592.867 90.737 592.914 91.0547C592.966 91.3724 593.042 91.6458 593.141 91.875V92H591.633C591.56 91.8333 591.503 91.612 591.461 91.3359C591.419 91.0547 591.398 90.7943 591.398 90.5547ZM591.648 86.875L591.664 87.8906H590.203C589.792 87.8906 589.424 87.9245 589.102 87.9922C588.779 88.0547 588.508 88.151 588.289 88.2812C588.07 88.4115 587.904 88.5755 587.789 88.7734C587.674 88.9661 587.617 89.1927 587.617 89.4531C587.617 89.7188 587.677 89.9609 587.797 90.1797C587.917 90.3984 588.096 90.5729 588.336 90.7031C588.581 90.8281 588.88 90.8906 589.234 90.8906C589.677 90.8906 590.068 90.7969 590.406 90.6094C590.745 90.4219 591.013 90.1927 591.211 89.9219C591.414 89.651 591.523 89.388 591.539 89.1328L592.156 89.8281C592.12 90.0469 592.021 90.2891 591.859 90.5547C591.698 90.8203 591.482 91.0755 591.211 91.3203C590.945 91.5599 590.628 91.7604 590.258 91.9219C589.893 92.0781 589.482 92.1562 589.023 92.1562C588.451 92.1562 587.948 92.0443 587.516 91.8203C587.089 91.5964 586.755 91.2969 586.516 90.9219C586.281 90.5417 586.164 90.1172 586.164 89.6484C586.164 89.1953 586.253 88.7969 586.43 88.4531C586.607 88.1042 586.862 87.8151 587.195 87.5859C587.529 87.3516 587.93 87.1745 588.398 87.0547C588.867 86.9349 589.391 86.875 589.969 86.875H591.648ZM596.688 80V92H595.234V80H596.688ZM602.547 83.5469V84.6562H597.977V83.5469H602.547ZM599.523 81.4922H600.969V89.9062C600.969 90.1927 601.013 90.4089 601.102 90.5547C601.19 90.7005 601.305 90.7969 601.445 90.8438C601.586 90.8906 601.737 90.9141 601.898 90.9141C602.018 90.9141 602.143 90.9036 602.273 90.8828C602.409 90.8568 602.51 90.8359 602.578 90.8203L602.586 92C602.471 92.0365 602.32 92.0703 602.133 92.1016C601.951 92.138 601.729 92.1562 601.469 92.1562C601.115 92.1562 600.789 92.0859 600.492 91.9453C600.195 91.8047 599.958 91.5703 599.781 91.2422C599.609 90.9089 599.523 90.4609 599.523 89.8984V81.4922ZM606.617 91.125L608.969 83.5469H610.516L607.125 93.3047C607.047 93.513 606.943 93.737 606.812 93.9766C606.688 94.2214 606.526 94.4531 606.328 94.6719C606.13 94.8906 605.891 95.0677 605.609 95.2031C605.333 95.3438 605.003 95.4141 604.617 95.4141C604.503 95.4141 604.357 95.3984 604.18 95.3672C604.003 95.3359 603.878 95.3099 603.805 95.2891L603.797 94.1172C603.839 94.1224 603.904 94.1276 603.992 94.1328C604.086 94.1432 604.151 94.1484 604.188 94.1484C604.516 94.1484 604.794 94.1042 605.023 94.0156C605.253 93.9323 605.445 93.7891 605.602 93.5859C605.763 93.388 605.901 93.1146 606.016 92.7656L606.617 91.125ZM604.891 83.5469L607.086 90.1094L607.461 91.6328L606.422 92.1641L603.312 83.5469H604.891ZM619.086 92H616.711L616.727 90.7734H619.086C619.898 90.7734 620.576 90.6042 621.117 90.2656C621.659 89.9219 622.065 89.4427 622.336 88.8281C622.612 88.2083 622.75 87.4844 622.75 86.6562V85.9609C622.75 85.3099 622.672 84.7318 622.516 84.2266C622.359 83.7161 622.13 83.2865 621.828 82.9375C621.526 82.5833 621.156 82.3151 620.719 82.1328C620.286 81.9505 619.789 81.8594 619.227 81.8594H616.664V80.625H619.227C619.971 80.625 620.651 80.75 621.266 81C621.88 81.2448 622.409 81.6016 622.852 82.0703C623.299 82.5339 623.643 83.0964 623.883 83.7578C624.122 84.4141 624.242 85.1536 624.242 85.9766V86.6562C624.242 87.4792 624.122 88.2214 623.883 88.8828C623.643 89.5391 623.297 90.099 622.844 90.5625C622.396 91.026 621.854 91.3828 621.219 91.6328C620.589 91.8776 619.878 92 619.086 92ZM617.516 80.625V92H616.008V80.625H617.516ZM631.273 90.5547V86.2031C631.273 85.8698 631.206 85.5807 631.07 85.3359C630.94 85.0859 630.742 84.8932 630.477 84.7578C630.211 84.6224 629.883 84.5547 629.492 84.5547C629.128 84.5547 628.807 84.6172 628.531 84.7422C628.26 84.8672 628.047 85.0312 627.891 85.2344C627.74 85.4375 627.664 85.6562 627.664 85.8906H626.219C626.219 85.5885 626.297 85.2891 626.453 84.9922C626.609 84.6953 626.833 84.4271 627.125 84.1875C627.422 83.9427 627.776 83.75 628.188 83.6094C628.604 83.4635 629.068 83.3906 629.578 83.3906C630.193 83.3906 630.734 83.4948 631.203 83.7031C631.677 83.9115 632.047 84.2266 632.312 84.6484C632.583 85.0651 632.719 85.5885 632.719 86.2188V90.1562C632.719 90.4375 632.742 90.737 632.789 91.0547C632.841 91.3724 632.917 91.6458 633.016 91.875V92H631.508C631.435 91.8333 631.378 91.612 631.336 91.3359C631.294 91.0547 631.273 90.7943 631.273 90.5547ZM631.523 86.875L631.539 87.8906H630.078C629.667 87.8906 629.299 87.9245 628.977 87.9922C628.654 88.0547 628.383 88.151 628.164 88.2812C627.945 88.4115 627.779 88.5755 627.664 88.7734C627.549 88.9661 627.492 89.1927 627.492 89.4531C627.492 89.7188 627.552 89.9609 627.672 90.1797C627.792 90.3984 627.971 90.5729 628.211 90.7031C628.456 90.8281 628.755 90.8906 629.109 90.8906C629.552 90.8906 629.943 90.7969 630.281 90.6094C630.62 90.4219 630.888 90.1927 631.086 89.9219C631.289 89.651 631.398 89.388 631.414 89.1328L632.031 89.8281C631.995 90.0469 631.896 90.2891 631.734 90.5547C631.573 90.8203 631.357 91.0755 631.086 91.3203C630.82 91.5599 630.503 91.7604 630.133 91.9219C629.768 92.0781 629.357 92.1562 628.898 92.1562C628.326 92.1562 627.823 92.0443 627.391 91.8203C626.964 91.5964 626.63 91.2969 626.391 90.9219C626.156 90.5417 626.039 90.1172 626.039 89.6484C626.039 89.1953 626.128 88.7969 626.305 88.4531C626.482 88.1042 626.737 87.8151 627.07 87.5859C627.404 87.3516 627.805 87.1745 628.273 87.0547C628.742 86.9349 629.266 86.875 629.844 86.875H631.523ZM637.242 91.125L639.594 83.5469H641.141L637.75 93.3047C637.672 93.513 637.568 93.737 637.438 93.9766C637.312 94.2214 637.151 94.4531 636.953 94.6719C636.755 94.8906 636.516 95.0677 636.234 95.2031C635.958 95.3438 635.628 95.4141 635.242 95.4141C635.128 95.4141 634.982 95.3984 634.805 95.3672C634.628 95.3359 634.503 95.3099 634.43 95.2891L634.422 94.1172C634.464 94.1224 634.529 94.1276 634.617 94.1328C634.711 94.1432 634.776 94.1484 634.812 94.1484C635.141 94.1484 635.419 94.1042 635.648 94.0156C635.878 93.9323 636.07 93.7891 636.227 93.5859C636.388 93.388 636.526 93.1146 636.641 92.7656L637.242 91.125ZM635.516 83.5469L637.711 90.1094L638.086 91.6328L637.047 92.1641L633.938 83.5469H635.516ZM647.367 89.7578C647.367 89.5495 647.32 89.3568 647.227 89.1797C647.138 88.9974 646.953 88.8333 646.672 88.6875C646.396 88.5365 645.979 88.4062 645.422 88.2969C644.953 88.1979 644.529 88.0807 644.148 87.9453C643.773 87.8099 643.453 87.6458 643.188 87.4531C642.927 87.2604 642.727 87.0339 642.586 86.7734C642.445 86.513 642.375 86.2083 642.375 85.8594C642.375 85.526 642.448 85.2109 642.594 84.9141C642.745 84.6172 642.956 84.3542 643.227 84.125C643.503 83.8958 643.833 83.7161 644.219 83.5859C644.604 83.4557 645.034 83.3906 645.508 83.3906C646.185 83.3906 646.763 83.5104 647.242 83.75C647.721 83.9896 648.089 84.3099 648.344 84.7109C648.599 85.1068 648.727 85.5469 648.727 86.0312H647.281C647.281 85.7969 647.211 85.5703 647.07 85.3516C646.935 85.1276 646.734 84.9427 646.469 84.7969C646.208 84.651 645.888 84.5781 645.508 84.5781C645.107 84.5781 644.781 84.6406 644.531 84.7656C644.286 84.8854 644.107 85.0391 643.992 85.2266C643.883 85.4141 643.828 85.612 643.828 85.8203C643.828 85.9766 643.854 86.1172 643.906 86.2422C643.964 86.362 644.062 86.474 644.203 86.5781C644.344 86.6771 644.542 86.7708 644.797 86.8594C645.052 86.9479 645.378 87.0365 645.773 87.125C646.466 87.2812 647.036 87.4688 647.484 87.6875C647.932 87.9062 648.266 88.1745 648.484 88.4922C648.703 88.8099 648.812 89.1953 648.812 89.6484C648.812 90.0182 648.734 90.3568 648.578 90.6641C648.427 90.9714 648.206 91.237 647.914 91.4609C647.628 91.6797 647.284 91.8516 646.883 91.9766C646.487 92.0964 646.042 92.1562 645.547 92.1562C644.802 92.1562 644.172 92.0234 643.656 91.7578C643.141 91.4922 642.75 91.1484 642.484 90.7266C642.219 90.3047 642.086 89.8594 642.086 89.3906H643.539C643.56 89.7865 643.674 90.1016 643.883 90.3359C644.091 90.5651 644.346 90.7292 644.648 90.8281C644.951 90.9219 645.25 90.9688 645.547 90.9688C645.943 90.9688 646.273 90.9167 646.539 90.8125C646.81 90.7083 647.016 90.5651 647.156 90.3828C647.297 90.2005 647.367 89.9922 647.367 89.7578Z" fill="#252C58"/>
<path id="0" d="M577.649 38.2285V42.6445C577.649 44.7598 577.439 46.5658 577.019 48.0625C576.61 49.5469 576.017 50.7529 575.237 51.6807C574.458 52.6084 573.524 53.2887 572.436 53.7217C571.359 54.1546 570.153 54.3711 568.817 54.3711C567.754 54.3711 566.764 54.235 565.849 53.9629C564.946 53.6908 564.129 53.264 563.399 52.6826C562.67 52.1012 562.045 51.3529 561.525 50.4375C561.018 49.5098 560.622 48.4027 560.338 47.1162C560.066 45.8298 559.93 44.3392 559.93 42.6445V38.2285C559.93 36.1009 560.14 34.3073 560.561 32.8477C560.981 31.3757 561.581 30.182 562.36 29.2666C563.14 28.3389 564.067 27.6647 565.144 27.2441C566.232 26.8236 567.444 26.6133 568.78 26.6133C569.856 26.6133 570.846 26.7493 571.749 27.0215C572.664 27.2812 573.481 27.6956 574.198 28.2646C574.928 28.8337 575.547 29.5758 576.054 30.4912C576.573 31.3942 576.969 32.4889 577.241 33.7754C577.513 35.0495 577.649 36.5339 577.649 38.2285ZM573.178 43.2754V37.5605C573.178 36.4844 573.116 35.5381 572.992 34.7217C572.868 33.8929 572.683 33.194 572.436 32.625C572.201 32.0436 571.904 31.5736 571.545 31.2148C571.186 30.8438 570.778 30.5778 570.32 30.417C569.863 30.2438 569.349 30.1572 568.78 30.1572C568.088 30.1572 567.469 30.2933 566.925 30.5654C566.381 30.8252 565.923 31.2458 565.552 31.8271C565.181 32.4085 564.896 33.1755 564.698 34.1279C564.513 35.068 564.42 36.2122 564.42 37.5605V43.2754C564.42 44.3639 564.482 45.3226 564.605 46.1514C564.729 46.9801 564.915 47.6914 565.162 48.2852C565.41 48.8665 565.706 49.349 566.053 49.7324C566.411 50.1035 566.82 50.3757 567.277 50.5488C567.747 50.722 568.261 50.8086 568.817 50.8086C569.522 50.8086 570.147 50.6725 570.691 50.4004C571.236 50.1283 571.693 49.6953 572.064 49.1016C572.436 48.4954 572.714 47.71 572.899 46.7451C573.085 45.7803 573.178 44.6237 573.178 43.2754Z" fill="#252C58"/>
</g>
</g>
</g>
<defs>
<filter id="filter0_d_294_1261" x="-22" y="-32" width="302" height="186" filterUnits="userSpaceOnUse" color-interpolation-filters="sRGB">
<feFlood flood-opacity="0" result="BackgroundImageFix"/>
<feColorMatrix in="SourceAlpha" type="matrix" values="0 0 0 0 0 0 0 0 0 0 0 0 0 0 0 0 0 0 127 0" result="hardAlpha"/>
<feOffset dx="4" dy="-6"/>
<feGaussianBlur stdDeviation="13"/>
<feComposite in2="hardAlpha" operator="out"/>
<feColorMatrix type="matrix" values="0 0 0 0 0.815686 0 0 0 0 0.866667 0 0 0 0 0.988235 0 0 0 0.4 0"/>
<feBlend mode="normal" in2="BackgroundImageFix" result="effect1_dropShadow_294_1261"/>
<feBlend mode="normal" in="SourceGraphic" in2="effect1_dropShadow_294_1261" result="shape"/>
</filter>
<filter id="filter1_d_294_1261" x="244" y="-32" width="302" height="186" filterUnits="userSpaceOnUse" color-interpolation-filters="sRGB">
<feFlood flood-opacity="0" result="BackgroundImageFix"/>
<feColorMatrix in="SourceAlpha" type="matrix" values="0 0 0 0 0 0 0 0 0 0 0 0 0 0 0 0 0 0 127 0" result="hardAlpha"/>
<feOffset dx="4" dy="-6"/>
<feGaussianBlur stdDeviation="13"/>
<feComposite in2="hardAlpha" operator="out"/>
<feColorMatrix type="matrix" values="0 0 0 0 0.815686 0 0 0 0 0.866667 0 0 0 0 0.988235 0 0 0 0.4 0"/>
<feBlend mode="normal" in2="BackgroundImageFix" result="effect1_dropShadow_294_1261"/>
<feBlend mode="normal" in="SourceGraphic" in2="effect1_dropShadow_294_1261" result="shape"/>
</filter>
<filter id="filter2_d_294_1261" x="510" y="-32" width="302" height="186" filterUnits="userSpaceOnUse" color-interpolation-filters="sRGB">
<feFlood flood-opacity="0" result="BackgroundImageFix"/>
<feColorMatrix in="SourceAlpha" type="matrix" values="0 0 0 0 0 0 0 0 0 0 0 0 0 0 0 0 0 0 127 0" result="hardAlpha"/>
<feOffset dx="4" dy="-6"/>
<feGaussianBlur stdDeviation="13"/>
<feComposite in2="hardAlpha" operator="out"/>
<feColorMatrix type="matrix" values="0 0 0 0 0.815686 0 0 0 0 0.866667 0 0 0 0 0.988235 0 0 0 0.4 0"/>
<feBlend mode="normal" in2="BackgroundImageFix" result="effect1_dropShadow_294_1261"/>
<feBlend mode="normal" in="SourceGraphic" in2="effect1_dropShadow_294_1261" result="shape"/>
</filter>
</defs>
</svg>
